<?xml version="1.0" standalone="no"?>
<!DOCTYPE svg PUBLIC "-//W3C//DTD SVG 1.1//EN" "http://www.w3.org/Graphics/SVG/1.1/DTD/svg11.dtd" >
<svg xmlns="http://www.w3.org/2000/svg">
<metadata>
This is a custom SVG webfont generated by Font Squirrel.
Copyright   : Copyright 2010 URW Design  Development Hamburg
Foundry URL : wwwurwppde
</metadata>
<defs>
<font id="SchneidlerMediaevalRegular" horiz-adv-x="1024" >
<font-face units-per-em="2048" ascent="1448" descent="-600" />
<missing-glyph horiz-adv-x="630" />
<glyph unicode=" "  horiz-adv-x="630" />
<glyph unicode="&#x09;" horiz-adv-x="630" />
<glyph unicode="&#xa0;" horiz-adv-x="630" />
<glyph unicode="!" horiz-adv-x="536" d="M168 84q0 41 29.5 70.5t70.5 29.5t70 -29.5t29 -70.5q0 -39 -30 -68.5t-69 -29.5q-41 0 -70.5 28.5t-29.5 69.5zM188 1235v39q0 104 78 104q43 0 60.5 -28.5t17.5 -102.5q0 -160 -12 -319l-37 -602l-59 -33l-37 665q-4 29 -4 127q-5 101 -7 150z" />
<glyph unicode="&#x22;" horiz-adv-x="581" d="M106 1331q0 53 60 53q25 0 40 -13t13 -34l-2 -32l-33 -338h-37l-38 333q-3 11 -3 31zM365 1331q0 53 57 53q53 0 53 -47q0 -18 -2 -32l-31 -338h-39l-36 333q-2 6 -2 31z" />
<glyph unicode="#" horiz-adv-x="1193" d="M59 430l13 74h282l90 358h-299l13 74h303l108 430h76l-106 -430h243l107 430h76l-107 -430h277l-13 -74h-282l-90 -358h299l-13 -74h-305l-106 -430h-78l108 430h-243l-107 -430h-78l109 430h-277zM430 504h244l90 358h-244z" />
<glyph unicode="$" horiz-adv-x="1017" d="M90 268q-4 47 37 47q18 0 26.5 -11t16.5 -54q41 -184 248 -184q16 0 37 2v587q-190 86 -262 167t-72 212q0 109 59.5 196t157.5 124q39 14 117 28v144h69v-140q127 0 307 -24v-33q0 -78 7 -151q2 -12 2 -33q0 -39 -37 -39q-23 0 -29 8t-18 57q-18 76 -67.5 107t-149.5 33 h-15v-545q199 -88 276 -174t77 -217q0 -152 -96.5 -254.5t-256.5 -122.5v-182h-69v178q-12 -2 -33 -2q-70 0 -318 31zM242 1061q0 -94 41 -145.5t172 -116.5v508q-100 -14 -156.5 -79t-56.5 -167zM524 76q106 18 171 91t65 175q0 152 -137 227q-25 14 -99 54v-547z" />
<glyph unicode="%" horiz-adv-x="1705" d="M88 1024q0 143 92 237.5t232 94.5q137 0 221 -85t84 -222.5t-93.5 -232.5t-228.5 -95q-133 0 -220 86t-87 217zM215 1024q0 -113 53.5 -185.5t134.5 -72.5q84 0 136.5 76t52.5 196q0 125 -49 199t-133 74t-139.5 -81t-55.5 -206zM420 -59l745 1456h80l-743 -1456h-82z M979 287q0 139 93 233t230.5 94t226.5 -86t89 -219q0 -119 -82 -217q-94 -111 -248 -110q-133 0 -221 87t-88 218zM1106 295q0 -113 54 -188.5t136 -75.5q80 0 137.5 82t57.5 194.5t-53.5 186t-134.5 73.5q-84 0 -140.5 -78.5t-56.5 -193.5z" />
<glyph unicode="&#x26;" horiz-adv-x="1525" d="M111 295q0 168 213 305l125 78q-225 158 -226 328q0 119 87 195.5t220.5 76.5t212 -74t78.5 -196q0 -100 -55 -169t-207 -161l463 -309q184 324 184 446q0 55 -27.5 75.5t-113.5 29.5q-25 2 -30 9t-5 42q0 14 5 17t28 3q29 0 104 -16q66 -12 101 -12q27 0 137 24 q25 4 49 4q18 0 22.5 -5t4.5 -25q0 -25 -8.5 -32t-45.5 -11q-72 -12 -94 -35q-12 -10 -35 -60q-14 -39 -43 -112q-47 -119 -104 -236t-80 -141l408 -268l-76 -95l-381 289q-221 -279 -516 -278q-172 0 -283.5 88t-111.5 225zM227 340q0 -106 96.5 -186t225.5 -80 q182 0 328 125q25 23 94 96l-473 346q-111 -68 -127 -80q-144 -100 -144 -221zM324 987q0 -111 88 -192q31 -29 96 -80q82 53 129 90q94 84 94 182q0 78 -58.5 130t-144.5 52q-88 0 -146 -52t-58 -130z" />
<glyph unicode="'" horiz-adv-x="325" d="M106 1331q0 53 60 53q25 0 40 -13t13 -34l-2 -32l-33 -338h-37l-38 333q-3 11 -3 31z" />
<glyph unicode="(" horiz-adv-x="647" d="M104 555q0 514 377 909l68 -61q-184 -219 -265 -418t-81 -436.5t83 -440t263 -411.5l-68 -59q-180 180 -278.5 420.5t-98.5 496.5z" />
<glyph unicode=")" horiz-adv-x="647" d="M98 -303q184 219 265 418.5t81 437.5q0 236 -82.5 439.5t-263.5 410.5l68 61q180 -180 278.5 -420.5t98.5 -496.5q0 -516 -377 -909z" />
<glyph unicode="*" horiz-adv-x="749" d="M106 1014q0 37 58 59l184 70l-184 69q-57 20 -58 60q0 18 12.5 31.5t28.5 13.5q31 0 66 -29l145 -114l-28 192q-2 14 -2 34.5t14 34t35 13.5q45 0 45 -55v-17l-31 -202l150 122q33 27 57 27q18 0 31.5 -13.5t13.5 -33.5q0 -35 -63 -62l-179 -71l189 -72q55 -23 55 -57 q0 -18 -13.5 -31.5t-33.5 -13.5q-23 0 -47 20l-160 129l27 -198q2 -10 2 -27q0 -23 -14.5 -38t-34.5 -15q-45 0 -45 53q0 14 2 20l30 205l-151 -125q-27 -25 -60 -24q-41 0 -41 45z" />
<glyph unicode="+" horiz-adv-x="1157" d="M92 549v74h449v452h77v-452h449v-74h-449v-451h-77v451h-449z" />
<glyph unicode="," horiz-adv-x="503" d="M63 -383q0 6 52 68q49 59 90 142t41 122q0 55 -49 55q-29 0 -60 -10q25 61 33 176q86 -4 90 -4q8 0 20.5 1t34 2t41.5 1q-10 -133 -58 -271.5t-120 -240.5q-29 -43 -37 -45l-61 -2q-17 0 -17 6z" />
<glyph unicode="-" horiz-adv-x="428" d="M0 395v97h428v-97h-428z" />
<glyph unicode="." horiz-adv-x="501" d="M152 84q0 41 29.5 70.5t70.5 29.5t69.5 -29.5t28.5 -70.5q0 -39 -29.5 -68.5t-68.5 -29.5q-41 0 -70.5 28.5t-29.5 69.5z" />
<glyph unicode="/" horiz-adv-x="892" d="M-12 -328q0 4 6 29l692 1704l8 18q6 18 27 19h39q18 0 18 -10.5t-8 -26.5l-692 -1710q-8 -27 -16.5 -31t-43.5 -4q-30 0 -30 12z" />
<glyph unicode="0" horiz-adv-x="1017" d="M96 670q0 319 117 516.5t307 197.5q180 0 292 -186t112 -489q0 -283 -113 -512q-111 -213 -313 -213q-186 0 -294 184.5t-108 501.5zM240 618q0 -240 55 -393q33 -84 90 -133t123 -49q127 0 199.5 177t72.5 485q0 301 -61 452q-29 76 -82 121t-115 45 q-129 0 -205.5 -191.5t-76.5 -513.5z" />
<glyph unicode="1" horiz-adv-x="1017" d="M217 1042q0 10 23 35l356 307l35 -20q-14 -123 -15 -248v-639q0 -61 2 -104q2 -51 3 -111q-2 -117 24.5 -150.5t126.5 -48.5q41 -6 48 -10t7 -24q0 -27 -6 -34t-24 -7q-27 0 -146 24q-68 12 -104 13q-33 0 -156 -23q-72 -14 -96 -14q-29 0 -29 39q0 16 12.5 24t47.5 12 q145 14 157 105q8 49 9 270v492q0 201 -7 270l-194 -174q-23 -23 -39 -22q-12 0 -23.5 12t-11.5 26z" />
<glyph unicode="2" horiz-adv-x="1017" d="M68 -4v57q391 403 517 587.5t126 352.5q0 115 -74 188.5t-191 73.5q-143 0 -225 -110q-43 -61 -59 -170q-2 -25 -25 -25q-27 0 -26 70q0 162 101 262t265 100q166 0 269.5 -98t103.5 -258q0 -150 -85 -297t-296 -362q-145 -145 -274 -256q49 6 129 6h204q111 0 151 22.5 t91 112.5l35 59q25 43 53 43q33 0 33 -28q0 -10 -94 -201q-23 -51 -49 -129l-5 -12q-72 20 -323 20q-233 0 -352 -8z" />
<glyph unicode="3" horiz-adv-x="1017" d="M76 279q0 94 76 94q41 0 57 -29q12 -18 18 -133q4 -74 65.5 -120t153.5 -46q145 0 239.5 92t94.5 234q0 133 -95 210.5t-257 77.5q-102 0 -233 -34l47 155q111 -25 200 -24q176 0 254 102q59 76 60 160q0 106 -79 172.5t-204 66.5q-121 0 -196.5 -60t-86.5 -167 q-4 -55 -22 -55q-35 0 -35 88q0 137 98.5 228t249.5 91q156 0 257.5 -93t101.5 -232q0 -106 -54.5 -190.5t-148.5 -125.5q121 -27 190.5 -115.5t69.5 -213.5q0 -182 -132 -306t-327 -124q-158 0 -260 84t-102 213z" />
<glyph unicode="4" horiz-adv-x="1017" d="M63 424q0 12 27 45q20 29 135 193l457 665q20 29 29 41q6 10 16 14h6h2l41 -16q8 -2 8 -14q0 -2 -2 -37q-6 -86 -6 -240v-602h166v-102h-166v-215q0 -92 -41 -166h-137q35 55 43 90t8 129v162h-366q-53 0 -181 -6h-8q-31 0 -31 59zM193 473h40h70h70h276l10 678z" />
<glyph unicode="5" horiz-adv-x="1017" d="M63 252q0 47 21.5 75.5t60.5 28.5q41 0 56.5 -23.5t13.5 -82.5q0 -201 197 -201q152 0 256 125t104 305q0 154 -80 236t-229 82q-131 0 -289 -80l-8 -2q-8 0 -8 10q0 8 8 37q4 12 20 84l64 356q16 131 16 144h88h426q63 0 121 18l12 2q8 0 9 -6q0 -2 -7 -14l-53 -117 q-8 -16 -11 -20.5t-7 -2.5q-2 0 -15 6q-25 12 -41 13q-12 0 -24 2l-45 2h-391l-62 -352q100 51 228 51q184 0 287.5 -96.5t103.5 -268.5q0 -242 -162 -430q-137 -154 -332 -153q-141 0 -234.5 77.5t-93.5 194.5z" />
<glyph unicode="6" horiz-adv-x="1017" d="M94 510q0 416 338 682q119 94 268.5 151.5t270.5 57.5q29 0 38 -5t9 -20q0 -16 -5 -20t-32 -10q-256 -57 -477 -246t-273 -389q125 205 332 204q156 0 255.5 -116.5t99.5 -296.5q0 -219 -123 -370.5t-299 -151.5q-178 0 -290 147t-112 383zM219 463q0 -182 82 -299 t211 -117q123 0 202 105.5t79 269.5q0 176 -79 282.5t-208 106.5q-125 0 -206 -98t-81 -250z" />
<glyph unicode="7" horiz-adv-x="1017" d="M109 1200q0 6 2 10l34 123q8 25 23 25q8 0 12 -2q78 -10 191 -10h305q162 0 285 14h10q14 0 14 -14q0 -10 -6 -19l-741 -1343h-109l688 1241h-389h-14h-15l-71 -2q-102 0 -176 -23q-31 -8 -33 -8q-10 0 -10 8z" />
<glyph unicode="8" horiz-adv-x="1017" d="M115 362q0 285 272 353q-250 53 -250 315q0 156 104.5 254t270.5 98q162 0 265.5 -97t103.5 -251q0 -256 -246 -319q127 -29 197.5 -119t70.5 -229q0 -166 -113.5 -273.5t-287.5 -107.5q-170 0 -278.5 104t-108.5 272zM219 381q0 -121 80 -196.5t211 -75.5 q127 0 211 77.5t84 196.5q0 129 -81 211t-210 82q-137 0 -216 -79t-79 -216zM231 1014q0 -111 79 -185.5t196 -74.5q121 0 200.5 74.5t79.5 187.5q0 117 -70.5 183.5t-195.5 66.5q-131 0 -210 -68.5t-79 -183.5z" />
<glyph unicode="9" horiz-adv-x="1017" d="M90 897q0 207 123 347t303 140q178 0 283.5 -132t105.5 -353q0 -244 -129 -475t-336 -361q-131 -82 -270 -81q-41 0 -41 16q0 8 80 49q109 53 218.5 145.5t180.5 190.5q133 184 168 342q-139 -215 -348 -215q-145 0 -241.5 109.5t-96.5 277.5zM188 942q0 -135 81 -221 t208 -86q137 0 229.5 97t92.5 243q0 141 -82 230t-209 89q-137 0 -228.5 -100t-91.5 -252z" />
<glyph unicode=":" horiz-adv-x="501" d="M152 84q0 41 29.5 70.5t70.5 29.5t69.5 -29.5t28.5 -70.5q0 -39 -29.5 -68.5t-68.5 -29.5q-41 0 -70.5 28.5t-29.5 69.5zM152 688q0 41 29.5 69.5t70.5 28.5t69.5 -29.5t28.5 -70.5q0 -39 -29.5 -68.5t-68.5 -29.5q-41 0 -70.5 29.5t-29.5 70.5z" />
<glyph unicode=";" horiz-adv-x="503" d="M63 -383q0 6 52 68q49 59 90 142t41 122q0 55 -49 55q-29 0 -60 -10q25 61 33 176q86 -4 90 -4q8 0 20.5 1t34 2t41.5 1q-10 -133 -58 -271.5t-120 -240.5q-29 -43 -37 -45l-61 -2q-17 0 -17 6zM162 686q0 41 28.5 70.5t67.5 29.5q41 0 70.5 -30.5t29.5 -69.5 t-28.5 -67.5t-67.5 -28.5q-41 0 -70.5 28.5t-29.5 67.5z" />
<glyph unicode="&#x3c;" d="M90 686v10l844 547v-63l-674 -441l674 -448v-166z" />
<glyph unicode="=" horiz-adv-x="1157" d="M94 416v73h975v-73h-975zM94 688v72h975v-72h-975z" />
<glyph unicode="&#x3e;" d="M90 125v63l674 441l-674 448v166l844 -559v-12z" />
<glyph unicode="?" horiz-adv-x="886" d="M117 635q0 162 172 272q33 20 133 74q96 51 96 125q0 70 -69 100q-20 10 -103 11q-39 0 -39 14q0 6 12 18l127 123q10 8 15 8q6 0 51 -32q133 -100 133 -205q0 -72 -51 -127q-35 -41 -64.5 -59.5t-173.5 -88.5q-174 -86 -174 -235q0 -106 81 -173t210 -67q125 0 221 62 q43 29 72 49l70 -84q-59 -47 -153.5 -78t-188.5 -31q-166 0 -271.5 90.5t-105.5 233.5zM350 84q0 41 30 70.5t71 29.5t69.5 -29.5t28.5 -70.5q0 -39 -28.5 -68.5t-69.5 -29.5t-71 28.5t-30 69.5z" />
<glyph unicode="@" horiz-adv-x="1640" d="M137 588q0 365 231.5 589t608.5 224q246 0 397 -125q170 -143 170 -358q0 -262 -305 -469q-47 -31 -134 -79t-126 -63l-4 -2q-2 0 -2 -2l-8 -2q-4 0 -10.5 9t-6.5 13.5t4 8.5q4 8 11 43l14 69q-133 -133 -275 -133q-96 0 -159.5 64.5t-63.5 165.5q0 184 137.5 337.5 t301.5 153.5q57 0 101 -22.5t48 -55.5l2 19q6 35 15.5 45t41.5 22l50 21q8 4 16 4q12 0 12 -29q0 -2 -12 -12q-20 -14 -31 -78l-90 -508v-10q0 -12 12 -12q25 0 101 49q244 158 243 426q0 201 -122.5 313.5t-341.5 112.5q-131 0 -264.5 -47t-225.5 -125q-225 -197 -225 -549 q0 -225 88 -365q53 -86 154.5 -137t218.5 -51q209 0 454 98l13 -59q-276 -117 -510 -117q-244 0 -386.5 168t-142.5 455zM580 563q0 -74 42 -119t111 -45q106 0 232 93q14 10 18 19t12 50l47 264q6 31 7 41q0 33 -43 60.5t-97 27.5q-160 0 -262 -170q-67 -108 -67 -221z" />
<glyph unicode="A" horiz-adv-x="1318" d="M-27 14q0 35 9.5 41t64.5 13q51 8 90 63t92 191l328 788q72 174 86 221q20 53 37 53q14 0 19.5 -11t27.5 -77q10 -37 43 -116l360 -920q51 -127 78 -155.5t111 -45.5q20 -4 24.5 -9t4.5 -23q0 -25 -7.5 -31t-33.5 -6q-23 0 -80 14q-55 16 -103 16q-35 0 -88 -14 q-59 -16 -78 -16q-20 0 -25 6t-5 33q0 16 6 22t27 8q43 8 58 19.5t15 36.5q0 29 -26 96l-136 342h-438l-131 -320q-33 -80 -33 -110q0 -49 80 -62q16 -2 24.5 -5t11.5 -8t3 -15q0 -43 -22 -43q-35 0 -93 14q-61 16 -84 16q-45 0 -110 -18q-39 -12 -64 -12q-43 -1 -43 24z M469 639h371l-178 481z" />
<glyph unicode="B" horiz-adv-x="1130" d="M33 26.5q0 22.5 17.5 27.5t101.5 9q76 4 96 43q6 14 8 150v913q0 90 -10 103q-12 18 -99 31q-53 6 -63 13t-10 34q0 29 32 28q20 0 56 -6q78 -14 166 -14q35 0 200 10q12 2 45 2q158 0 255.5 -87t97.5 -226q0 -168 -133 -269q-43 -35 -131 -61q139 -16 235 -78 q150 -94 150 -274q0 -176 -123 -281.5t-328 -105.5q-78 0 -207 20q-29 4 -72 4q-51 0 -151 -16q-68 -6 -92 -6q-27 0 -34 7t-7 29.5zM383 383q0 -190 14 -236q29 -86 176 -86q158 0 245 77t87 216q0 211 -200 287q-100 37 -265 37q-33 0 -57 -2v-293zM383 752q139 0 197 12 q209 45 208 264q0 160 -118 229q-43 25 -84 31t-154 6q-39 0 -47 -8q-2 -4 -2 -41v-493z" />
<glyph unicode="C" horiz-adv-x="1372" d="M98 721q0 168 70 301q96 188 254 272t412 84q100 0 323 -37q8 0 38 -4l60 -8l11 -201q-2 -31 -8.5 -39t-26.5 -8q-25 0 -32 10.5t-17 59.5q-14 63 -39 84q-29 27 -133.5 48.5t-204.5 21.5q-229 0 -383 -138q-176 -158 -176 -479q0 -283 166 -450.5t446 -167.5 q109 0 197 25.5t121 66.5q18 20 47 112q12 37 43 37q16 0 28.5 -9t12.5 -19q0 -4 -9 -54l-43 -190q-293 -51 -413 -51q-201 0 -359.5 67.5t-253.5 194.5q-131 178 -131 471z" />
<glyph unicode="D" horiz-adv-x="1511" d="M16 10v37q0 14 6.5 17.5t28.5 7.5l121 10q53 6 72 35q10 23 10 198v840v86q-2 29 -13.5 39t-52.5 16l-69 11q-33 6 -39 11t-6 28q0 35 24 34l27 -2q117 -25 219 -24q74 0 305 14q14 2 51 2q317 0 513 -186.5t196 -489.5q0 -311 -194.5 -507.5t-503.5 -196.5 q-98 0 -273 30q-41 6 -86 7q-84 0 -200 -21q-111 -16 -117 -16q-19 0 -19 20zM383 401q0 -141 4 -176t21 -65q57 -96 286 -97q244 0 383 136q184 174 185 487q0 279 -166 444.5t-443 165.5l-82 -2l-151 -8q-29 -2 -33 -10q-4 -4 -4 -111v-764z" />
<glyph unicode="E" horiz-adv-x="1064" d="M61 23q0 20 8.5 27t30.5 7q102 4 128 25.5t26 105.5v1018q0 57 -16 72q-12 10 -121 20q-27 4 -33 11.5t-6 33.5q0 29 22 29q14 0 60 -4q123 -8 239 -8q55 0 219 4q76 2 205 4h4q8 0 9.5 -5t1.5 -36l4 -49q12 -90 12 -113q0 -35 -39 -35q-20 0 -28.5 12.5t-12.5 49.5 q-8 57 -32.5 72.5t-112.5 15.5h-248v-553h307q68 0 86.5 15.5t26.5 82.5q6 43 37 43q37 0 36 -34q0 -12 -6 -56q-4 -37 -4 -84q0 -33 8 -82q6 -43 7 -59q0 -41 -37 -41q-33 0 -39 45q-8 57 -26.5 67.5t-98.5 10.5h-297v-297q4 -129 7 -158.5t24 -54.5q23 -29 78 -38t188 -9 q152 0 194 45q16 16 22.5 29.5t25.5 78.5q12 35 45 35q37 0 36 -30q0 -10 -4 -27q-23 -80 -53 -221h-18q-6 0 -25.5 1t-56.5 3t-68 4q-123 10 -373 10q-139 0 -266 -18l-39 -2q-23 0 -30 7t-7 30z" />
<glyph unicode="F" horiz-adv-x="960" d="M57 31q0 14 8.5 20t34.5 8q119 16 140 50q14 23 14 186v860q0 78 -3 97.5t-15 29.5q-14 10 -119 23q-27 2 -33 11t-6 42q0 20 28 20q12 0 58 -6q111 -12 268 -12q39 0 158 4q143 4 147 4h80q8 0 19 2q4 -25 10 -70q2 -29 20 -124q4 -27 4 -41q0 -31 -34 -31 q-27 0 -35 15.5t-25 84.5q-10 51 -40.5 63.5t-143.5 12.5h-209v-553h248q86 0 107.5 12.5t29.5 65.5q8 61 43 61t35 -37q0 -20 -2 -34q-8 -61 -8 -101q0 -51 12 -116q2 -10 2 -29q0 -35 -33 -35q-27 0 -34 12.5t-17 71.5q-4 23 -35 32t-106 9h-242v-340q0 -158 22.5 -188.5 t155.5 -53.5q20 -4 24.5 -9t4.5 -30q0 -18 -8.5 -24t-30.5 -6q-31 0 -123 24q-61 14 -100 15q-55 0 -160 -29q-41 -12 -84 -12q-18 0 -22.5 7t-4.5 38z" />
<glyph unicode="G" horiz-adv-x="1441" d="M100 680q0 338 199 526q180 170 514 170q125 0 338 -26q66 -6 82 -7q10 -143 20 -184q4 -29 4 -35q0 -31 -32 -30h-4q-20 0 -28.5 10t-18.5 49q-18 76 -60 100q-82 49 -307 50q-276 0 -418.5 -152t-142.5 -449q0 -311 150.5 -472.5t441.5 -161.5q207 0 274 67 q27 27 27 146q0 111 -15.5 130t-107.5 27q-27 2 -27 23v31q0 18 27 18q8 0 90 -12q55 -8 102 -9q37 0 84 13q47 10 62 10q18 0 18 -20v-27q0 -23 -33 -27q-51 -8 -62 -21.5t-11 -60.5v-67q-2 -33 -2 -133q0 -63 4 -158q-55 8 -92 8q-51 0 -224 -16q-14 -2 -88 -2 q-319 0 -493 114q-271 181 -271 578z" />
<glyph unicode="H" horiz-adv-x="1552" d="M80 8v25q0 20 35 26q88 14 113.5 48t25.5 135v825q0 152 -19.5 185.5t-113.5 52.5q-41 6 -41 24v31q0 20 26 20q33 0 166 -32q31 -8 54 -9q20 0 110 23q82 16 103 16q25 0 24 -18v-27q0 -20 -86 -39q-66 -18 -80 -50t-16 -185v-324h788v332q0 158 -20 186q-25 37 -131 56 q-29 6 -29 26v27q0 16 31 16t115 -24q53 -12 88 -13q47 0 108 17q70 20 115 20q27 0 27 -20v-27q0 -18 -29 -24q-96 -18 -117 -39q-31 -35 -31 -181v-780q0 -156 21.5 -193.5t116.5 -52.5q39 -2 39 -26v-29q0 -20 -25 -20q-39 0 -156 30q-25 8 -69 9q-35 0 -93 -15 q-90 -25 -112 -24q-27 0 -27 18v29q0 23 49 28q82 12 104.5 47t22.5 150v385h-784v-297q0 -82 2 -121t6 -73.5t21.5 -48t37 -21.5t60.5 -19q53 -8 53 -26v-29q0 -20 -26 -20q-25 0 -109 20q-72 16 -102 17q-35 0 -101 -17q-84 -23 -119 -22q-26 -1 -26 22z" />
<glyph unicode="I" horiz-adv-x="636" d="M74 33q0 12 6 17t26 7q109 23 130 59q19 33 18 167v28v740q0 123 -4 155.5t-21 53.5q-23 33 -125 49q-20 2 -25 10t-5 31q0 16 6 22t24 6q27 0 84 -14q90 -23 125 -23t138 25q66 12 92 12q20 0 20 -37q0 -18 -9 -25t-42 -11q-96 -16 -115 -60q-14 -39 -14 -190v-752 q0 -156 18 -186q20 -37 119 -56q33 -4 38 -10t5 -41q0 -23 -26 -22q-33 0 -95 16q-70 20 -121 20.5t-165 -28.5q-25 -8 -52 -8q-18 0 -24 9t-6 36z" />
<glyph unicode="J" horiz-adv-x="620" d="M0 -197q27 -2 55 -2q111 0 156 58q25 33 31 74.5t6 183.5v991q0 117 -12.5 142.5t-71.5 41.5q-74 16 -86 23.5t-12 34.5q0 18 6 24t22 6q27 0 101 -18q66 -20 104 -21q49 0 117 17q76 20 108 20q16 0 21.5 -8t5.5 -35q0 -16 -11.5 -22t-82.5 -23q-53 -12 -65.5 -40.5 t-12.5 -135.5l-6 -747q-4 -254 -18.5 -350.5t-61.5 -176.5q-45 -80 -119 -128t-147 -48h-27v139z" />
<glyph unicode="K" horiz-adv-x="1259" d="M80 25q0 20 6 26t31 10q102 20 119.5 51t17.5 187v793q0 125 -18.5 159.5t-92.5 48.5q-45 8 -54 14.5t-9 35.5q0 31 31 30q27 0 92 -16q88 -23 122.5 -23t96.5 17q27 6 74 16q33 4 41 4q14 0 19 -8t5 -35q0 -14 -8 -19t-33 -11q-98 -18 -118.5 -49t-20.5 -158v-799 q0 -135 17.5 -173t84.5 -54q57 -12 67.5 -18.5t10.5 -30.5q0 -23 -6 -29t-29 -6q-25 0 -82 18q-61 20 -118 21q-43 0 -109 -17q-74 -20 -108 -20q-29 0 -29 35zM414 688l420 483q61 72 61 95q0 20 -53 32q-57 12 -66.5 18.5t-9.5 33.5q0 18 5 24t22 6q25 0 92 -20 q57 -14 94 -14q31 0 115 22q49 12 71.5 12t22.5 -24q0 -33 -4 -37q-6 -4 -62 -19q-57 -14 -78.5 -29.5t-70.5 -74.5l-418 -475l477 -512q188 -195 246 -205q43 -12 43 -27q0 -18 -76 -18q-96 0 -165.5 36t-157.5 132z" />
<glyph unicode="L" horiz-adv-x="1009" d="M33 27q0 20 6 23t37 7l82 9q74 10 86 47q8 20 8 57l2 133v819q0 115 -19.5 140.5t-125.5 46.5q-20 2 -24.5 8t-4.5 28.5t5 27.5t28 5q39 0 143 -28q37 -10 63 -11q31 0 130 27q63 14 88 14q27 0 26 -39q0 -18 -11 -25t-50 -13q-82 -10 -105 -54q-14 -29 -14 -123v-807 q0 -106 5 -135.5t26 -52.5q39 -49 153 -49h133q109 0 152 24.5t61 94.5q10 41 20.5 54t33.5 13q37 0 37 -32q0 -16 -33 -130q-12 -45 -27 -116q-4 0 -158 6q-195 14 -413 14q-119 0 -201 -12q-80 -10 -113 -10q-26 0 -26 39z" />
<glyph unicode="M" horiz-adv-x="1826" d="M29 25q0 20 6 26t33 12q80 20 92 62q8 18 14 80q2 16 6 65t8 80l84 942q4 68 8.5 79t22.5 11q8 0 14.5 -7t30.5 -54l570 -1067l520 1073q25 55 43 55q20 0 28 -57l127 -979q10 -76 15.5 -108.5t15.5 -71.5t16.5 -49.5t27 -24.5t36.5 -17t55 -12q16 -4 21.5 -12t5.5 -28 q0 -35 -29 -35q-37 0 -100 18q-68 18 -94 19q-63 0 -170 -29q-29 -8 -54 -8q-27 0 -26 47q0 20 45 28q72 12 98.5 33t26.5 64q0 51 -15 164l-92 753l-461 -952q-31 -63 -38 -74.5t-19 -11.5t-24 22q-8 18 -31 62l-504 954l-49 -710q-10 -111 -10 -131q0 -90 29.5 -123 t136.5 -54q23 -4 22 -36q0 -20 -8 -26.5t-31 -6.5q-33 0 -84 16q-53 18 -98 19q-53 0 -133 -25q-45 -10 -58 -10q-30 0 -30 35z" />
<glyph unicode="N" horiz-adv-x="1568" d="M78 31q0 16 7 21t40 14q86 16 100 47q16 29 19 249l4 834l2 25q0 63 -4 108q-2 10 -2 29q0 27 22 26q12 0 41 -34l918 -1102v792q0 147 -17 189q-8 33 -31.5 46t-101.5 32q-27 6 -32 12t-5 39q0 23 29 22q27 0 135 -28q25 -8 58 -9q35 0 122 25q39 12 80 12q18 0 24.5 -6 t6.5 -24q0 -23 -8 -31t-33 -12q-92 -14 -106 -45q-10 -14 -15 -74q0 -35 -2 -68l-2 -59v-832q0 -199 2 -221q2 -14 -4 -24.5t-16 -10.5q-16 0 -56 47l-907 1086v-744q0 -174 19 -229q23 -55 141 -74q20 -4 25.5 -9t5.5 -25q0 -23 -5.5 -29t-19.5 -6q-23 0 -106 20 q-45 12 -97 13q-41 0 -119 -19q-68 -14 -86 -14q-26 0 -26 41z" />
<glyph unicode="O" horiz-adv-x="1581" d="M102 682q0 303 199 501.5t500 198.5q295 0 487.5 -198.5t192.5 -501.5q0 -295 -201 -497.5t-493.5 -202.5t-488.5 200.5t-196 499.5zM231 676q0 -254 157 -417t400.5 -163t403.5 166t160 418q0 260 -156 424t-401 164q-250 0 -407 -164t-157 -428z" />
<glyph unicode="P" horiz-adv-x="1013" d="M98 1345.5q0 20.5 6.5 26.5t22.5 6q12 0 53 -8q68 -12 137 -12q59 0 144 8q86 4 121 4q176 0 273 -84t97 -237q0 -166 -109.5 -269.5t-285.5 -103.5q-49 0 -96 21.5t-47 43.5q0 8 12 9h6q33 -4 53 -5q164 0 256.5 71t92.5 196q0 121 -87.5 197.5t-224.5 76.5 q-113 0 -131 -14q-6 -6 -8 -86v-873q0 -150 28.5 -190.5t139.5 -54.5q63 -10 74.5 -15.5t11.5 -29.5q0 -23 -6 -30t-27 -7q-49 0 -184 28q-57 10 -88 11q-25 0 -94 -17q-66 -20 -107 -20q-20 0 -25.5 7t-5.5 32q0 20 8.5 25t59.5 14q66 12 78 61q8 29 8 186v822 q0 109 -14.5 130t-104.5 42q-25 4 -31 11t-6 27.5z" />
<glyph unicode="Q" horiz-adv-x="1581" d="M102 674q0 307 198 507.5t497 200.5q295 0 488.5 -195.5t193.5 -494.5q0 -285 -172 -475l159 -158q61 -61 109 -84q4 -4 4 -6q0 -10 -28.5 -10t-63.5 -2h-27q-45 0 -68.5 10t-58.5 47l-116 115q-184 -147 -433 -147q-293 0 -487.5 197.5t-194.5 494.5zM231 684 q0 -262 150 -418q166 -172 409.5 -172t402.5 167t159 423q0 258 -157 421t-407 163q-246 0 -401.5 -164t-155.5 -420z" />
<glyph unicode="R" horiz-adv-x="1273" d="M78 25q0 23 12 29.5t84 21.5q55 12 67.5 51t12.5 205v751q0 141 -16 170q-20 35 -84 47q-53 12 -62.5 18.5t-9.5 31.5q0 31 20 30q8 0 84 -10q92 -10 144 -10q16 0 170 6q90 4 110 4q164 0 256 -83t92 -232q0 -229 -221 -371l213 -287q119 -162 216.5 -273.5 t119.5 -115.5q47 -23 47 -35t-22 -12q-121 0 -210 61.5t-214 231.5l-279 375q-94 -8 -186 -8h-41v-283q0 -178 20 -217q8 -18 45 -35.5t78 -22.5q23 -4 30 -11t7 -27.5t-6 -27.5t-23 -7q-23 0 -98 20q-80 18 -112 19q-29 0 -107 -21q-84 -18 -109 -18q-28 0 -28 35zM381 696 q94 -4 104 -4q156 0 232 64q100 84 100 248q0 133 -73.5 208.5t-202.5 75.5q-131 0 -152 -8q-8 -2 -8 -45v-539z" />
<glyph unicode="S" horiz-adv-x="993" d="M104 268q0 41 35 41q20 0 29.5 -12t17.5 -47q37 -184 263 -184q139 0 222 72.5t83 197.5q0 135 -105 211q-47 35 -252 137q-135 68 -192.5 143.5t-57.5 186.5q0 168 105.5 267t284.5 99q86 0 299 -22v-166v-64q-2 -27 -33 -26q-33 0 -39 35q-23 82 -45 114 q-39 55 -174 56q-131 0 -202 -65.5t-71 -184.5q0 -100 47.5 -153.5t204.5 -131.5q201 -98 271 -174q88 -92 88 -229q0 -166 -122 -273.5t-310 -107.5q-94 0 -332 35l-13 206z" />
<glyph unicode="T" horiz-adv-x="1204" d="M-47 1219v10l35 145q6 29 16 29q4 0 10 -4q49 -33 207 -33h783q150 0 204 39q8 8 15 8q12 0 12 -8q0 -14 -2 -21l-33 -131q-2 -4 -2 -14q-4 -18 -16 -18q-4 0 -19 12q-53 45 -211 45h-286v-993q0 -137 19.5 -169t115.5 -50q39 -6 47 -11.5t8 -25.5v-11q0 -29 -27 -28 q-37 0 -96 16q-92 20 -131 21q-45 0 -133 -23q-59 -16 -92 -16q-20 0 -25.5 7t-5.5 30q0 18 6 24t33 10q45 8 64.5 12.5t42 19.5t27.5 24.5t11.5 45.5t6.5 63v100v954h-289q-113 0 -161 -10.5t-91 -42.5q-27 -20 -33 -21q-10 1 -10 15z" />
<glyph unicode="U" horiz-adv-x="1433" d="M57 1343q0 39 25 39q12 0 141 -30q33 -4 49 -4q41 0 146 22q57 8 65 8q14 0 18.5 -7t4.5 -32q0 -18 -10.5 -23t-73.5 -22q-70 -16 -82 -42.5t-12 -170.5q0 -512 47 -696q82 -322 366 -322q299 0 361 373q31 164 31 611q0 152 -11 196q-8 45 -82 62q-39 8 -45 13t-6 33.5 t27 28.5q31 0 90 -18q51 -14 82 -14t110 20q25 8 70 8q18 0 18 -20q0 -31 -4 -37t-26 -10q-63 -14 -82 -37t-21 -92q0 -49 -18 -447q-16 -371 -123 -545q-129 -205 -391 -204q-137 0 -249 58t-165 159q-49 88 -69.5 201.5t-34.5 359.5l-17 352q-6 115 -8 123q-4 33 -21.5 45 t-82.5 31q-17 5 -17 30z" />
<glyph unicode="V" horiz-adv-x="1277" d="M-39 1333q0 33 4 40t23 7q23 0 57 -8q74 -18 105 -18q29 0 86 16q47 12 75 12q16 0 21.5 -6t5.5 -28q0 -31 -23 -35q-53 -14 -67.5 -21.5t-14.5 -19.5q0 -16 64 -170l371 -889l383 944q20 51 20 84q0 55 -94 64q-33 2 -42 11t-9 36q0 31 32 30q20 0 74 -12q59 -16 96 -16 q43 0 103 16q45 10 61.5 10t20.5 -7t4 -32q0 -29 -23 -30q-45 -4 -67.5 -33t-69.5 -137l-465 -1106q-20 -51 -26.5 -59.5t-14.5 -8.5t-14 10.5t-31 71.5l-461 1069q-61 139 -77 154q-16 23 -61.5 33t-45.5 28z" />
<glyph unicode="W" horiz-adv-x="1882" d="M-20 1350q0 33 26 32q23 0 64 -12q57 -16 94 -16q41 0 123 22q25 6 53 6q27 0 27 -26v-8q0 -20 -5.5 -27.5t-23.5 -9.5q-55 -10 -72.5 -19.5t-17.5 -25.5q0 -10 26 -86l314 -947l303 902l-27 75q-16 47 -32.5 61.5t-61.5 24.5q-61 12 -71.5 19.5t-10.5 42.5q0 25 27 24 q39 0 164 -32q20 -4 45 -4q39 0 131 20q68 16 92 16q27 0 27 -20v-14v-13q0 -16 -9 -18q-2 -2 -102 -27q-41 -10 -53.5 -18t-12.5 -27q0 -12 17 -57l313 -955l313 936q27 78 27 99q0 16 -12.5 21t-75.5 20q-25 4 -25 39q0 23 4.5 27.5t18.5 4.5q29 0 78 -12q49 -14 76 -14 q14 0 63 8q70 16 88 16q23 0 23 -32q0 -23 -10.5 -29t-73.5 -27q-27 -8 -39.5 -30.5t-42.5 -112.5l-393 -1122q-14 -39 -20.5 -48.5t-17 -9.5t-15.5 9.5t-19 54.5l-332 973l-336 -981q-16 -41 -20 -48.5t-15 -7.5q-18 0 -36 56l-400 1146q-35 92 -52 109.5t-79 32.5 q-24 4 -24 39z" />
<glyph unicode="X" horiz-adv-x="1310" d="M-4 23q0 23 7 27.5t50 17.5q59 14 82 36q8 4 47 52q37 49 58 73l348 459l-352 496q-25 33 -48 67q-18 25 -35.5 33t-72.5 19q-37 8 -45 15t-8 36q0 27 26 26q29 0 150 -26q25 -4 43 -4q14 0 123 18q66 12 77 12q25 0 25 -39q0 -20 -11 -26t-65 -19q-43 -10 -43 -30 q0 -25 41 -84l275 -396l266 363q53 70 61.5 83t8.5 30q0 29 -86 45q-29 4 -35 11t-6 34q0 18 6 22t28 4q18 0 117 -20q35 -8 64 -8q23 0 133 20q35 8 53 8q35 0 35 -28q0 -31 -10 -37q-2 0 -60 -17q-55 -14 -86 -39.5t-113 -128.5l-317 -419l332 -471q55 -82 78 -111 q25 -29 48 -39t87 -25q29 -8 34 -13t5 -27.5t-7.5 -28.5t-34 -6t-134.5 24q-29 6 -60 6t-82 -12q-72 -18 -96 -18q-23 0 -29 7t-6 30q0 18 8.5 25t34.5 11q76 12 76 43q0 20 -55 103l-279 401l-295 -391q-55 -74 -55 -94q0 -23 18.5 -33t92.5 -29q20 -6 25 -10t5 -18 q0 -29 -8 -36t-35 -7q-18 0 -88 18q-57 10 -88 10q-33 0 -135 -22q-31 -8 -59 -8q-16 0 -22.5 7.5t-6.5 27.5z" />
<glyph unicode="Y" horiz-adv-x="1218" d="M-39 1352q0 18 6 23t25 5q33 0 117 -24q14 -6 45 -6q29 0 106 18q41 10 70 10q18 0 24 -6t6 -26.5t-7 -27.5t-29 -11q-80 -12 -80 -37q0 -16 32 -68l357 -553l303 500q63 100 63 115q0 16 -16 23t-78 20q-25 4 -24 43q0 29 32 28q14 0 48 -8q74 -18 104.5 -18t105.5 20 q33 8 46 8q25 0 31.5 -8t6.5 -37q0 -18 -36 -26q-66 -16 -84 -31q-16 -16 -72 -104l-387 -627v-287q0 -121 21.5 -150.5t127.5 -50.5q23 -4 26 -10t3 -37q0 -25 -27 -24q-23 0 -71 12q-106 25 -146 25q-45 0 -149 -29q-33 -8 -68 -8q-14 0 -18 8t-4 37q0 16 51 28 q90 23 109.5 51.5t19.5 147.5v287l-414 637q-47 74 -66.5 90t-74.5 33q-25 6 -30 13t-5 32z" />
<glyph unicode="Z" horiz-adv-x="1255" d="M43 6q0 6 10 21l912 1237h-623q-119 0 -143 -2q-74 -10 -101 -39q-12 -16 -18 -17q-8 0 -8 11l2 18l22 137q6 31 17 31q4 0 24 -10q43 -27 225 -27h773q29 0 28 -8q0 -2 -10 -15l-909 -1234h790q86 0 117 7t76 40h2q6 0 6 -6.5t-2 -12.5l-21 -135q-6 -25 -14 -25 q-2 0 -14 7q-31 16 -144 16h-979q-18 0 -18 6z" />
<glyph unicode="[" horiz-adv-x="581" d="M205 -367v1809h344v-86h-248v-1641h248v-82h-344z" />
<glyph unicode="\" horiz-adv-x="892" d="M-14 1432q0 14 18 10l14 -2l27 2q14 2 18.5 -3t16.5 -34l690 -1704q8 -16 8 -28.5t-30 -12.5q-35 0 -43.5 4t-18.5 31l-690 1710q-10 23 -10 27z" />
<glyph unicode="]" horiz-adv-x="583" d="M33 -281h248v1641h-248v82h344v-1809h-344v86z" />
<glyph unicode="^" d="M-47 590l561 844h10l547 -844h-61l-443 674l-448 -674h-166z" />
<glyph unicode="_" d="M55 -178h916v-70h-916v70z" />
<glyph unicode="`" d="M164 1274q0 23 18.5 40t40.5 17q33 0 86 -53l277 -268h-66l-276 174q-80 47 -80 90z" />
<glyph unicode="a" horiz-adv-x="894" d="M61 207q0 70 39 128t105 91q82 41 262 80l139 26q4 33 4 35q0 41 -14 111q-25 113 -195 113q-74 0 -92 -9.5t-36.5 -56.5t-29 -59.5t-32.5 -12.5q-41 0 -41 35q0 16 8 49q12 33 12 43q6 16 15 49q10 41 20 45q33 12 172 13q217 0 287 -109q14 -23 18.5 -41t14.5 -100 q4 -35 4 -53v-199l-2 -55q6 -133 10 -156q14 -72 90 -98q33 -10 33 -19q0 -20 -33 -46.5t-57 -26.5q-70 0 -139 112q-4 8 -17 27q-49 -66 -127 -104.5t-160 -38.5q-117 0 -187.5 62.5t-70.5 164.5zM190 219q0 -66 44.5 -105.5t115.5 -39.5q115 0 201 76q55 53 55 145v102 q0 47 -26 47q-37 0 -120 -18t-130 -35q-140 -57 -140 -172z" />
<glyph unicode="b" horiz-adv-x="1042" d="M43 1317q0 25 18 33l220 94q4 4 18 4q6 0 15.5 -16.5t9.5 -28.5t-17 -21q-20 -16 -25.5 -39.5t-5.5 -99.5v-455q0 -6 -1 -23t-2 -51t-1 -61q53 80 95 121q119 115 264 115q143 0 232 -107.5t89 -279.5q0 -217 -139 -368.5t-340 -151.5q-158 0 -268 106q-39 37 -39 76 l-2 59q-2 27 -2 56v935l-2 37q-2 18 -9.5 23.5t-33.5 7.5q-68 4 -72 14q-2 5 -2 21zM274 391q0 -170 41 -235q57 -96 189 -97q139 0 230 113t91 283q0 147 -66.5 232t-180.5 85q-156 0 -248 -131q-56 -84 -56 -250z" />
<glyph unicode="c" horiz-adv-x="845" d="M88 416q0 209 124 342t320 133q102 0 171 -36t69 -89q0 -27 -20.5 -47.5t-44.5 -20.5q-27 0 -62 29q-63 49 -94 62.5t-78 13.5q-115 0 -189.5 -93.5t-74.5 -238.5q0 -164 87 -271.5t222 -107.5q59 0 107.5 20.5t134.5 84.5q12 4 14 4q4 0 10 -8l15 -19q4 -4 4 -10 q0 -10 -33 -45q-139 -133 -311 -133q-162 0 -266.5 122t-104.5 308z" />
<glyph unicode="d" horiz-adv-x="1067" d="M86 381q0 213 128 359.5t314 146.5q133 0 228 -101v400q0 72 -6.5 85t-38.5 13h-45q-20 0 -23.5 5t-7.5 36q0 16 31 31l198 86q12 6 25 6q8 0 17 -15.5t9 -29.5q0 -6 -8 -14l-16 -17q-14 -14 -17.5 -34.5t-3.5 -129.5v-966q0 -80 4.5 -98.5t20.5 -18.5q6 0 35 12l22 10 q12 6 17 7q8 0 17 -16.5t9 -28.5q0 -6 -22 -21l-180 -111q-16 -10 -27 -10q-8 0 -18.5 15.5t-10.5 25.5q0 8 6 23q12 31 13 116q-178 -166 -336 -165q-152 0 -243 108.5t-91 290.5zM213 414q0 -150 71.5 -237t192.5 -87q133 0 260 123q14 14 16.5 23.5t2.5 50.5v317 q-4 72 -8 82q-25 51 -85.5 85t-127.5 34q-139 0 -230.5 -111.5t-91.5 -279.5z" />
<glyph unicode="e" horiz-adv-x="872" d="M88 389q0 221 114.5 360.5t297.5 139.5q176 0 264 -156q41 -76 41 -145q0 -25 -29 -29l-563 -100v-31q0 -156 76 -248t203 -92q150 0 274 125q14 12 18 12q6 0 20.5 -19.5t14.5 -27.5q0 -10 -24.5 -37.5t-57.5 -52.5q-131 -106 -280 -106q-172 0 -270.5 108.5 t-98.5 298.5zM221 530q25 4 141 25q205 35 267 53q33 12 33 39q0 35 -25 84q-41 84 -154 84q-102 0 -172 -75t-90 -210z" />
<glyph unicode="f" horiz-adv-x="638" d="M66 27q0 20 8 26t41 15q49 10 64.5 35.5t15.5 93.5v473q2 35 2 43q0 20 -5.5 26t-21.5 6q-39 0 -46 5.5t-7 31.5q0 10 8 18.5t53 41.5q16 14 17 28q0 37 2 99q2 166 24.5 253t77.5 144q88 84 207 84q74 0 120 -25.5t46 -66.5q0 -27 -20.5 -48.5t-49.5 -21.5q-20 0 -72 29 q-51 33 -88 33q-57 0 -92 -52q-37 -53 -37 -217v-176q0 -47 5.5 -55t35.5 -6l232 2l22 2q18 2 24.5 -7.5t6.5 -35.5q0 -61 -41 -62l-80 2l-90 -2q-39 0 -86 2h-31v-477v-27q0 -99 27 -129q31 -34 162 -49q45 -2 54 -8t9 -28.5t-11 -30.5t-44 -8q-49 0 -123 18 q-86 20 -117 21q-37 0 -92 -17q-61 -20 -78 -20q-32 0 -32 37z" />
<glyph unicode="g" horiz-adv-x="921" d="M16 -256q0 176 240 276q-125 41 -125 121q0 41 32 76t120 92q-176 80 -177 266q0 133 96.5 223.5t239.5 90.5q145 0 228 -72q98 29 198 29h37v-98h-10l-55 -3q-49 0 -107 -10q47 -78 47 -162q0 -131 -95 -217t-241 -86q-57 0 -112 19q-33 -18 -55.5 -47t-22.5 -52 q0 -74 188 -92l129 -12q147 -16 213 -43q109 -43 109 -166q0 -150 -160 -269.5t-360 -119.5q-160 0 -258.5 70.5t-98.5 185.5zM135 -221q0 -94 69.5 -150.5t188.5 -56.5q156 0 267.5 77t111.5 185q0 57 -42 89t-138 46q-139 20 -256 21q-72 0 -136.5 -67.5t-64.5 -143.5z M221 577.5q0 -98.5 62.5 -162t159 -63.5t159 62.5t62.5 160.5q0 102 -59.5 166t-155.5 64q-98 0 -163 -64.5t-65 -163z" />
<glyph unicode="h" horiz-adv-x="1081" d="M41 27q0 16 7 22t34 14l47 13q39 8 49 38.5t10 133.5v948q0 66 -5 77t-38 11h-47q-29 0 -28 37q0 20 22 29l209 90q18 8 23 8q8 0 15 -14.5t7 -28.5q0 -12 -12 -23l-12 -14q-20 -18 -21 -94v-545q92 86 163 122t148 36q152 0 224 -109q41 -59 56 -140t17 -232 q0 -287 9 -291q14 -29 77 -43l41 -11q18 -4 22.5 -11t4.5 -36q0 -25 -33 -24.5t-82 16.5q-57 18 -98 19q-53 0 -127 -21q-45 -14 -72 -14q-25 0 -24 41q0 14 5 19t38 16l51 12q47 12 59.5 38.5t12.5 116.5q0 297 -19 377q-41 170 -199 170q-127 0 -251 -112q-23 -18 -23 -52 v-387q0 -88 15.5 -113.5t78.5 -43.5l45 -13q23 -4 28 -10t5 -29q0 -31 -33 -30q-14 0 -59 12q-68 23 -117 23q-47 0 -145 -27q-23 -8 -43 -8q-35 0 -35 37z" />
<glyph unicode="i" horiz-adv-x="514" d="M49 10v27q0 23 35 24q82 16 99.5 42t21.5 124v361q0 113 -4 137q-4 20 -72 23q-51 0 -51 20v20q0 10 11 17.5t77 36.5q137 59 147 59q6 0 16.5 -15.5t10.5 -25.5q0 -6 -8 -20q-12 -23 -13 -80v-533q0 -96 17.5 -119.5t105.5 -44.5q35 -8 35 -26v-27q0 -20 -28 -20 q-18 0 -37 8q-92 29 -139.5 29t-137.5 -27q-41 -8 -57 -8q-29 0 -29 18zM172 1188q0 39 26.5 65.5t65.5 26.5t65.5 -26.5t26.5 -65.5t-26.5 -65.5t-65.5 -26.5t-65.5 26.5t-26.5 65.5z" />
<glyph unicode="j" horiz-adv-x="473" d="M41 -457q0 16 51 27q94 23 103 111q2 16 2 96v897q0 49 -4.5 60t-24.5 11h-62q-23 0 -29.5 6.5t-6.5 24.5q0 25 18 35l197 84l16 4q10 0 20.5 -14.5t10.5 -26.5q0 -6 -6 -18q-14 -25 -15 -95v-956q-4 -129 -8 -155.5t-31 -57.5q-29 -33 -91 -59.5t-113 -26.5 q-27 0 -27 53zM166 1188q0 39 26.5 65.5t65.5 26.5t65.5 -26.5t26.5 -65.5t-26.5 -65.5t-65.5 -26.5t-65.5 26.5t-26.5 65.5z" />
<glyph unicode="k" horiz-adv-x="1011" d="M49 25q0 20 9.5 25t64.5 20q51 12 62.5 36.5t11.5 133.5v958q0 59 -9.5 71.5t-54.5 14.5q-39 0 -48 4t-7 25q2 33 20 39l205 88q16 8 21 8q12 0 21 -15.5t9 -31.5q0 -8 -26 -31q-18 -16 -19 -104v-1014q0 -115 15.5 -141.5t97.5 -44.5q39 -8 48 -14.5t9 -22.5 q0 -41 -28 -41q-20 0 -101 22q-39 12 -84 13q-39 0 -102 -17q-66 -18 -84 -18q-31 0 -31 37zM342 481l354 346q53 53 79 69.5t61 16.5q33 0 54 -19.5t21 -49.5q0 -37 -22.5 -57.5t-89.5 -43.5q-66 -20 -131 -75l-187 -170l375 -361q51 -47 83 -61q28 -13 66 -13h11 q11 0 10 -10q0 -25 -39 -55q-43 -33 -80 -33t-61.5 14.5t-73.5 63.5q-4 4 -174 180q-12 12 -34.5 36t-33.5 36z" />
<glyph unicode="l" horiz-adv-x="509" d="M39 25q0 20 7 27t30 11q72 8 95.5 34t23.5 91v1014q0 61 -7.5 71.5t-52.5 10.5q-35 0 -45 6t-10 31q0 23 16 29l219 94q8 4 16.5 4t17.5 -14.5t9 -28.5q0 -12 -24 -33q-18 -16 -19 -112v-1020q0 -100 15.5 -127t83.5 -43q41 -10 50 -16.5t9 -28.5q0 -33 -24 -33 q-20 0 -84 18q-43 14 -99 15q-43 0 -143 -25q-37 -8 -57 -8q-27 0 -27 33z" />
<glyph unicode="m" horiz-adv-x="1660" d="M55 23q0 23 10.5 28.5t69.5 20.5q49 12 64 55q6 25 6 139v293q0 137 -4 160.5t-31 23.5l-55 5q-23 0 -30 6t-7 26q0 16 5 22.5t28 14.5l165 74q23 10 33 10q29 0 29 -43q0 -2 -6 -18q-14 -25 -17 -119q125 102 182.5 133t129.5 31q170 0 243 -178q172 178 332 178 q170 0 244 -164q27 -55 35 -142t8 -313q0 -94 5 -125.5t19.5 -46t57.5 -24.5q49 -10 61.5 -17.5t12.5 -29.5q0 -37 -27 -37q-16 0 -90 20q-76 18 -107 19q-45 0 -137 -27q-33 -10 -49 -10q-31 0 -31 35q0 23 9.5 28.5t60.5 18.5q70 16 84 43.5t14 140.5q0 313 -35 405 q-20 51 -70 85t-108 34q-127 0 -246 -112q-23 -18 -22 -29q0 -8 2 -14q12 -88 14 -443q2 -66 20.5 -84t98.5 -35q27 -4 34 -11t7 -23q0 -39 -31 -39q-18 0 -82 18q-68 18 -108 19q-43 0 -105 -19q-66 -16 -88 -16q-27 0 -26 35q0 20 9 26t66.5 20.5t74 41t16.5 110.5 q0 266 -17 369q-31 184 -198 184q-129 0 -242 -117q-14 -16 -14 -49v-352q0 -123 17 -147.5t120 -49.5q23 -6 28 -12t5 -26q0 -33 -29 -33q-16 0 -64 12q-76 25 -120 25q-37 0 -140 -29q-45 -10 -63 -10q-21 0 -21 35z" />
<glyph unicode="n" horiz-adv-x="1087" d="M53 29q0 27 31 32q59 10 82.5 23.5t28.5 40.5q6 18 8 133v307q0 160 -8 170q-2 6 -25 8l-64 5q-20 2 -26 8t-6 22q0 25 32 39l162 70q27 12 35 12q10 0 20.5 -13.5t10.5 -27.5q0 -4 -4 -16q-8 -10 -8 -17q-6 -14 -9 -102q12 6 101 80q102 82 211 82q88 0 153.5 -46 t100.5 -130q39 -96 39 -541q-2 -53 17 -71.5t91 -33.5q45 -8 45 -36q0 -39 -29 -39q-31 0 -120 26q-37 10 -74 11q-47 0 -129 -25q-45 -12 -60 -12q-29 0 -28 41q0 16 8 22t43 15q98 20 111 65q8 33 8 117q0 252 -19 354q-16 82 -70.5 128t-131.5 46q-111 0 -242 -112 q-14 -12 -17.5 -22.5t-3.5 -53.5v-350q0 -104 20.5 -130t121.5 -49q27 -6 26 -24q0 -29 -5 -37t-25.5 -8t-94.5 22q-45 12 -90 13q-33 0 -141 -29q-25 -8 -45 -8q-31 0 -31 41z" />
<glyph unicode="o" horiz-adv-x="1050" d="M86 438q0 203 123 328t323 125q193 0 311 -126t118 -331q0 -199 -123 -325.5t-315.5 -126.5t-314.5 127.5t-122 328.5zM215 440q0 -176 84 -276.5t229 -100.5q139 0 222.5 99.5t83.5 267.5q0 174 -83 276.5t-225 102.5q-145 0 -228 -98.5t-83 -270.5z" />
<glyph unicode="p" horiz-adv-x="1064" d="M70 780q0 14 5 20.5t27 16.5l177 78q12 6 24 6q8 0 17.5 -13.5t9.5 -23.5q0 -8 -11 -30q-8 -18 -8 -64v-104q70 106 162 164.5t191 58.5q145 0 230 -101.5t85 -275.5q0 -225 -126 -376.5t-314 -151.5q-133 0 -228 77v-374q0 -59 6.5 -69.5t40.5 -14.5l48 -9q14 -2 18 -8 t4 -28q0 -20 -35 -29l-196 -47q-16 -4 -25 -4q-10 0 -19.5 13t-9.5 28q0 12 17 24q25 18 31 37t6 78v1016q0 53 -6.5 63.5t-38.5 10.5h-52q-30 -1 -30 32zM311 367q0 -129 27 -181q29 -61 83 -96t120 -35q129 0 221 122t92 294q0 139 -65.5 224t-174.5 85q-84 0 -165.5 -54 t-126.5 -140q-10 -16 -11 -86v-133z" />
<glyph unicode="q" horiz-adv-x="1064" d="M86 360q0 219 133 373t322 154q115 0 213 -90v37l-2 47v8q0 23 8 22q2 0 16 -6q63 -33 131 -33q16 0 27 2h12q18 0 23.5 -9t5.5 -46q0 -33 -35 -33h-41q-20 0 -25.5 -8t-5.5 -41v-1052q2 -37 2 -62q0 -14 43 -22l45 -7q25 -2 25 -26q0 -18 -4 -24.5t-21 -10.5l-215 -53 q-6 -2 -14 -2t-18.5 14t-10.5 27q0 10 20.5 24.5t29.5 36.5l2 31l2 72v460q-182 -162 -348 -161q-147 0 -233.5 102t-86.5 276zM217 391q0 -143 66.5 -224t185.5 -81q66 0 119 22.5t129 81.5q27 20 32 34t5 69v366q0 51 -15 68q-66 82 -188 82q-143 0 -238.5 -119 t-95.5 -299z" />
<glyph unicode="r" horiz-adv-x="690" d="M59 10v25q0 18 45 31q72 16 86.5 37.5t14.5 115.5v481v15q0 20 -10.5 24t-71.5 9q-25 2 -32 4t-10 6t-3 14v14q0 16 18 25l207 86q6 4 12 4q8 0 9 -47v-162q47 90 125.5 143.5t166.5 53.5q33 0 43.5 -4t10.5 -19v-98q0 -18 -19 -18h-8q-18 2 -55 2q-129 0 -199 -68 q-39 -35 -52 -68.5t-13 -93.5v-286q0 -94 12 -119q16 -31 117 -49q39 -6 50 -11.5t11 -19.5v-29q0 -18 -35 -18q-25 0 -78 12q-98 23 -133 23q-29 0 -123 -27q-37 -8 -61.5 -8t-24.5 20z" />
<glyph unicode="s" horiz-adv-x="759" d="M100 217q0 23 13.5 37t36.5 14q43 0 49 -82q6 -70 24 -84q18 -16 66.5 -28.5t87.5 -12.5q84 0 138 44.5t54 113.5q0 59 -30 92q-25 29 -64 47.5t-160 55.5q-106 35 -154 88t-48 137q0 70 35.5 127t97.5 86q74 35 184 35q53 0 193 -17q16 -2 18 -39l8 -106l2 -39 q0 -53 -45 -53q-25 0 -35 19.5t-16 76.5q-2 47 -18 55q-37 20 -123 21q-88 0 -138.5 -38t-50.5 -103q0 -63 58 -101q25 -16 141 -55q152 -51 207 -105.5t55 -150.5q0 -115 -78 -189q-80 -82 -239 -81q-29 0 -122 9t-110 13q-14 2 -16 31l-15 121q-6 53 -6 61z" />
<glyph unicode="t" horiz-adv-x="628" d="M61 782q0 20 6.5 26.5t32.5 14.5q51 18 67.5 44t29.5 108q10 68 19 81t42 13q25 0 33 -9t8 -36v-131q2 -39 8 -45l31 -2l233 6h15q39 0 39 -35q0 -47 -12.5 -59.5t-61.5 -12.5h-172q-76 0 -82 -12q-6 -18 -6 -409q0 -131 30.5 -181.5t114.5 -50.5q63 0 123 39 q43 31 55 31q8 0 19.5 -13.5t11.5 -23.5q0 -18 -43 -55q-94 -86 -213 -86q-84 0 -138 44t-65 122q-10 86 -10 247v316q0 25 -4 28.5t-25 3.5h-55q-31 0 -31 37z" />
<glyph unicode="u" horiz-adv-x="1064" d="M49 778q0 25 27 35l190 78q16 8 25 8q10 0 20.5 -14.5t10.5 -30.5q0 -8 -19 -31q-10 -16 -10 -65v-389q0 -111 10 -153t43 -75q51 -51 133 -51q57 0 130 34t120 83q14 14 14 53v447q0 31 -3 36t-23 7l-62 8q-18 0 -18 30q0 23 8 29q2 2 57 12q86 18 172 62q12 4 15 4 q6 0 18.5 -16.5t12.5 -26.5q0 -6 -29 -33q-31 -29 -31 -84v-538q0 -72 25 -72q6 0 18 4q45 23 51 23q8 0 18.5 -14.5t10.5 -26.5q0 -10 -20 -23l-187 -113q-8 -8 -20 -8q-6 0 -19.5 16.5t-13.5 24.5q0 4 8 21q14 27 14 112q-166 -160 -301 -159q-70 0 -131 31.5t-94 84.5 q-47 72 -47 267v227l-2 129q-2 23 -20 22l-19 2l-47 3q-23 2 -29 7t-6 23z" />
<glyph unicode="v" horiz-adv-x="933" d="M-4 813q0 35 43 35q16 0 27 -2l61 -2q49 0 133 35q27 10 37 10q33 0 33 -47q0 -14 -43 -33q-61 -23 -62 -64q0 -66 254 -591q254 537 254 591q0 20 -11 28.5t-71 35.5q-39 16 -39 35q0 16 10.5 30.5t20.5 14.5q14 0 49 -15q74 -33 121 -32q31 0 59 2q14 2 37 2 q20 0 24.5 -7.5t4.5 -37.5q0 -10 -6 -14.5t-33 -12.5q-23 -8 -36 -27.5t-50 -95.5l-250 -520q-49 -106 -68.5 -135t-35.5 -29q-23 0 -35 29q-113 238 -117 244l-194 424q-33 74 -47.5 91t-55.5 27q-14 2 -14 31z" />
<glyph unicode="w" horiz-adv-x="1597" d="M-4 819q0 18 7 24.5t30 6.5q14 0 22 -2l66 -4q51 0 135 35q27 12 39 12q35 0 35 -45q0 -12 -15 -21l-43 -20q-47 -18 -47 -53q0 -37 51 -150l211 -463l222 463q35 76 34 121q0 59 -59 78l-55 16q-20 6 -25.5 11.5t-5.5 15.5q0 47 29 47q8 0 129 -29q29 -4 45 -4 q33 0 114 21q41 10 60 10q27 0 26 -43q0 -23 -26 -31l-62 -16q-39 -12 -39 -47q0 -31 27 -97l201 -503l237 479q41 78 41 119q0 29 -30 43l-45 18q-37 16 -37 33q0 45 35 45q12 0 40 -12q49 -16 93 -17q45 0 102 21q31 10 39 10t16.5 -14.5t8.5 -30.5q0 -14 -35 -37 q-27 -14 -37 -27.5t-37 -60.5l-375 -719q-16 -35 -23.5 -43t-17.5 -8q-18 0 -33 39l-239 612l-279 -579q-33 -70 -55 -70q-8 0 -14 7t-29 48l-338 705q-23 43 -33 52t-47 17q-14 6 -14 37z" />
<glyph unicode="x" horiz-adv-x="944" d="M-6 39q0 16 26 22q57 14 79 28.5t81 80.5l228 276l-197 236q-74 84 -99.5 102.5t-80.5 32.5q-25 10 -25 27q0 47 31 47q16 0 61 -14q43 -14 68 -15q37 0 117 25q18 6 30 6q8 0 17.5 -16.5t9.5 -32.5q0 -12 -23 -23q-27 -12 -31.5 -17t-4.5 -16q0 -20 24 -51l172 -215 l137 178q41 53 41 80q0 14 -7 20.5t-40 24.5q-12 6 -12 21q4 45 33 45q8 0 20 -6q72 -23 111 -23q27 0 96 21q18 8 43 8t25 -43q0 -20 -33 -31q-59 -16 -92 -49q-41 -43 -101 -115l-159 -198l235 -279l60 -61q18 -20 30.5 -27.5t65.5 -26.5q18 -6 18 -20q0 -49 -30 -49 q-18 0 -93 22q-23 8 -51.5 8.5t-105.5 -26.5q-12 -4 -21 -4q-29 0 -29 45q0 14 25 24q33 18 33 37q0 23 -47 82l-158 197l-156 -203q-45 -55 -45 -77.5t35 -41.5q16 -6 17 -22q0 -43 -31 -43q-8 0 -27 8q-61 23 -98 22q-25 0 -94 -20q-31 -10 -49 -10q-29 0 -29 49z" />
<glyph unicode="y" horiz-adv-x="1040" d="M-14 844q0 45 37 45q4 0 47 -12q49 -16 100 -17q63 0 121 21q18 8 28.5 8t18.5 -12.5t8 -28.5q0 -14 -5 -19.5t-38 -19.5l-39 -14q-31 -14 -31 -35q0 -18 31 -88l264 -549l234 448q74 139 74 181q0 25 -52 49l-43 18q-20 10 -20 25q0 18 10 32.5t23 14.5q6 0 53 -14 q35 -14 82 -15q37 0 125 27q6 2 16 2q8 0 16.5 -14.5t8.5 -30.5q0 -8 -3 -12.5t-11.5 -9.5t-30.5 -17q-25 -12 -45 -55l-39 -74l-437 -799q-49 -92 -117.5 -188.5t-111.5 -132.5q-82 -70 -170 -70q-35 0 -46 7t-13 32l-8 63v11q2 14 12 18t43 4h6q104 0 171 68 q69 70 208 319l-320 637q-47 90 -74.5 123t-68.5 51q-14 7 -14 23z" />
<glyph unicode="z" horiz-adv-x="956" d="M49 41q0 12 33 49l606 666h-291q-215 0 -307 -43q-16 -8 -22 -8q-10 0 -11 18q0 25 27 127q4 23 22 22q6 0 39 -4q25 -6 121 -6h379q88 0 143 6q31 4 39 4q29 0 29 -53q0 -14 -47 -63l-590 -650h301q293 0 379 33q12 6 21 6q10 0 10 -12q0 -23 -12 -67q-2 -14 -11 -43 q-8 -33 -33 -33q-4 0 -40 6q-57 4 -127 4h-488q-59 0 -117 -10h-12q-16 0 -28.5 15.5t-12.5 35.5z" />
<glyph unicode="{" horiz-adv-x="581" d="M123 498v80q45 6 63.5 37.5t18.5 99.5v508q0 113 53 166t164 53h127v-86h-98q-82 0 -115 -35q-35 -33 -35 -115v-518q0 -72 -17.5 -100.5t-68.5 -48.5q86 -23 86 -152v-518q0 -82 35 -115q33 -35 115 -35h98v-86h-127q-111 0 -164 53.5t-53 166.5v507q0 70 -17.5 100 t-64.5 38z" />
<glyph unicode="|" d="M469 -342v1708h84v-1708h-84z" />
<glyph unicode="}" horiz-adv-x="581" d="M33 -281h98q82 0 115 35q35 33 35 115v518q0 72 16 100.5t70 51.5q-86 20 -86 149v518q0 82 -35 115q-33 35 -115 35h-98v86h127q111 0 164 -53.5t53 -165.5v-508q0 -70 17.5 -99.5t64.5 -37.5v-80q-45 -6 -63.5 -38t-18.5 -100v-507q0 -113 -53.5 -166.5t-163.5 -53.5 h-127v86z" />
<glyph unicode="~" horiz-adv-x="1366" d="M246 1278q123 190 286 190q59 0 191 -45q106 -39 162 -39q119 0 213 119l24 -16q-51 -84 -129 -136.5t-151 -52.5q-43 0 -135 31q-170 59 -242 60q-57 0 -94 -24t-101 -103z" />
<glyph unicode="&#xa1;" horiz-adv-x="536" d="M170 793q0 39 29.5 68.5t68.5 29.5q41 0 71 -28.5t30 -69.5t-30 -71t-71 -30t-69.5 30t-28.5 71zM193 -373l10 322l37 602l59 33l39 -666q0 -12 4 -127q4 -90 6 -151v-37q0 -106 -78 -107q-43 0 -60 28.5t-17 102.5z" />
<glyph unicode="&#xa2;" horiz-adv-x="1017" d="M141 414q0 213 120 342t317 129q43 0 71 -4l49 143h70l-55 -158q135 -31 135 -108q0 -31 -17.5 -50.5t-46.5 -19.5q-33 0 -108 70l-225 -645q70 -29 131 -29q68 0 113.5 18.5t127.5 79.5q12 12 23 13q6 0 18.5 -13.5t12.5 -21.5q0 -14 -56 -64q-131 -117 -299 -116 q-55 0 -110 16l-66 -178h-67l67 202q-35 14 -70 50q-135 129 -135 344zM254 475q0 -106 40 -201.5t97 -128.5l225 646q-45 14 -81 14q-117 0 -199 -96.5t-82 -233.5z" />
<glyph unicode="&#xa3;" horiz-adv-x="1017" d="M51 25q0 66 146 94q63 113 87.5 187.5t24.5 160.5q0 90 -30 174h-140q-33 0 -39 9t-6 55q0 27 39 26h111q-59 127 -76.5 183.5t-17.5 115.5q0 160 117.5 256t312.5 96q31 0 157 -14q35 -4 105 -8l8 -213q-4 -39 -8 -46t-25 -7q-29 0 -39 36q-25 90 -51 121 q-43 53 -162 54q-131 0 -208.5 -73t-77.5 -196q0 -51 20 -108.5t86 -196.5h285q39 -2 48 -5t9 -17q0 -39 -12 -56q-6 -12 -45 -12h-258q16 -55 16 -125q0 -217 -158 -389q66 8 117 8q37 0 225 -14q16 -2 52 -2q66 0 106.5 29.5t77.5 105.5q33 66 47 83t35 17q33 0 33 -28 q0 -20 -50 -113q-51 -102 -96 -231q-193 45 -596 51l-16 2q-43 -55 -96 -55q-58 0 -58 45z" />
<glyph unicode="&#xa4;" horiz-adv-x="1605" d="M180 137l203 205q-121 152 -121 340t121 340l-203 203l82 80l201 -203q152 121 346 121q190 0 336 -121l203 203l77 -80l-202 -203q121 -156 120 -340q0 -178 -120 -340l202 -205l-77 -80l-205 205q-145 -121 -334 -121q-195 0 -344 121l-203 -205zM375 682 q0 -178 126 -303t306 -125t301 125q57 59 91 141t34 158q0 180 -125 307t-301 127q-180 0 -306 -125t-126 -305z" />
<glyph unicode="&#xa5;" horiz-adv-x="997" d="M-4 1315q0 27 20 26q8 0 29 -4q84 -14 117 -14t135 16l29 2q20 0 20 -30q0 -20 -8 -26.5t-55 -16.5q-39 -8 -39 -21q0 -14 18 -39l264 -405l256 409q16 23 17 35q0 16 -56 25q-43 8 -50 14t-7 35q0 20 16 20q23 0 95 -12q37 -6 59.5 -6t99.5 14l31 2q12 0 15.5 -7 t3.5 -34q0 -12 -4.5 -16t-24.5 -8q-51 -12 -65.5 -21.5t-37.5 -46.5l-268 -420h236q39 -2 48 -5t9 -17q0 -39 -12 -55q-8 -12 -45 -13h-277v-114h248q41 -2 50 -5.5t9 -17.5q0 -41 -12 -57q-8 -10 -45 -10h-250v-312q0 -66 19.5 -85t107.5 -40q27 -6 32 -10t5 -20 q0 -23 -5 -30t-24 -7q-14 0 -104 22q-45 14 -88 15q-41 0 -141 -27q-31 -10 -54 -10q-14 0 -19 6t-5 26q0 23 6 28t35 11q76 14 100.5 36t24.5 75v322h-279q-33 0 -40 9t-7 54q0 27 39 27h287v114h-308q-33 0 -39 9.5t-6 54.5q0 27 39 26h273l-277 412q-29 43 -45 55.5 t-65 22.5q-20 2 -25.5 9t-5.5 30z" />
<glyph unicode="&#xa6;" d="M469 313h84v-655h-84v655zM469 690v676h84v-676h-84z" />
<glyph unicode="&#xa7;" horiz-adv-x="952" d="M141 760q0 233 169 427.5t370 194.5q137 0 137 -84q0 -74 -78 -73q-31 0 -104 35q-41 18 -80 18q-74 0 -116 -50t-42 -136q0 -70 35 -151t133 -241l111 -182q90 -145 124 -237.5t34 -190.5q0 -215 -158 -412q-152 -193 -373 -192q-66 0 -104.5 22.5t-38.5 61.5 q0 31 21.5 52.5t49.5 21.5q31 0 131 -50q27 -14 68 -14q63 0 100 44t37 116q0 84 -32.5 164t-139.5 264l-125 213q-129 219 -129 379zM236 829q0 -162 126 -380l121 -207q92 -156 124 -240t32 -172q0 -70 -29 -143q125 143 125 348q0 96 -27.5 175t-115.5 222l-131 219 q-78 131 -104.5 202t-26.5 151q0 86 24 151q-118 -156 -118 -326z" />
<glyph unicode="&#xa8;" d="M231 1188q0 39 27 65.5t65.5 26.5t65.5 -26.5t27 -65.5t-27 -65.5t-65.5 -26.5t-65.5 26.5t-27 65.5zM608 1188q0 39 27 65.5t65.5 26.5t65.5 -26.5t27 -65.5t-27 -65.5t-65.5 -26.5t-65.5 26.5t-27 65.5z" />
<glyph unicode="&#xa9;" horiz-adv-x="1589" d="M82 682q0 295 209 499.5t512 204.5q289 0 496.5 -207.5t207.5 -496.5q0 -291 -208.5 -496.5t-503.5 -205.5t-504 205.5t-209 496.5zM172 682q0 -260 182.5 -445.5t438.5 -185.5t438 185.5t182 445.5t-181 446.5t-433 186.5q-262 0 -444.5 -183.5t-182.5 -449.5zM352 705 q0 106 43 186q59 115 156.5 167t253.5 52q59 0 194 -20q14 -4 68 -11l6 -129l2 -4q2 -14 -8 -25.5t-25 -11.5q-18 0 -25 8.5t-13 40.5q-8 35 -21 46q-16 14 -77.5 26t-119.5 12q-150 0 -236.5 -96t-86.5 -262q0 -164 96 -261t258 -97q145 0 182 51q10 10 27 65q10 29 37 29 q35 0 35 -29q0 -12 -4 -32l-27 -123q-180 -33 -258 -33q-217 0 -337 119t-120 332z" />
<glyph unicode="&#xaa;" horiz-adv-x="563" d="M41 954q0 76 57.5 120t192.5 71l78 14v10q0 76 -25 101q-29 25 -88 24q-53 0 -59 -10q-2 -4 -19 -43q-12 -29 -39 -29q-35 0 -35 33q0 10 13.5 57.5t17.5 57.5q10 14 121 14t156 -43t45 -149v-121q0 -109 8 -135.5t43 -38.5q29 -10 29 -23q0 -16 -22.5 -35.5t-43.5 -19.5 q-51 0 -94 74q-82 -76 -172 -76q-74 0 -119 40.5t-45 106.5zM139 961q0 -35 22.5 -55.5t59.5 -20.5q72 0 115 43q31 29 31 80v61q0 16 -2 16q-20 4 -111 -20q-115 -30 -115 -104z" />
<glyph unicode="&#xab;" horiz-adv-x="813" d="M117 438l207 299h98l-207 -299l207 -288h-98zM387 438l209 299h94l-203 -299l207 -288h-98z" />
<glyph unicode="&#xac;" d="M76 479v68h872v-547h-153v479h-719z" />
<glyph unicode="&#xad;" horiz-adv-x="428" d="M0 395v97h428v-97h-428z" />
<glyph unicode="&#xae;" horiz-adv-x="1589" d="M82 682q0 295 209 499.5t512 204.5q289 0 496.5 -207.5t207.5 -496.5q0 -291 -208.5 -496.5t-503.5 -205.5t-504 205.5t-209 496.5zM172 682q0 -262 181.5 -446.5t439.5 -184.5q254 0 442 189q-78 2 -127 36.5t-133 143.5l-162 219q-49 -4 -106 -4h-15v-158 q0 -102 11.5 -124.5t64.5 -30.5q33 -2 33 -33q0 -33 -29 -33q-14 0 -61 12q-49 12 -66 13q-20 0 -61 -13q-57 -12 -68 -12q-29 0 -29 33q0 18 9.5 24t58.5 17q27 6 33 26.5t6 116.5v451q0 78 -7 94t-46 24q-39 10 -45.5 14.5t-6.5 24.5q0 31 25 31q4 0 84 -10q12 -2 51 -2 t103 4q25 2 63 2q106 0 164.5 -52.5t58.5 -146.5q0 -143 -127 -227l121 -160q166 -227 197 -231q20 -10 26 -15l7 -6q152 182 151 416q0 260 -182 445.5t-438 185.5t-438.5 -185.5t-182.5 -447.5zM692 702q27 -2 53 -2q186 0 187 177q0 70 -39 113.5t-100 43.5l-97 -2 q-4 -2 -4 -16v-314z" />
<glyph unicode="&#xaf;" d="M209 1112v86h606v-86h-606z" />
<glyph unicode="&#xb0;" horiz-adv-x="679" d="M96 1142.5q0 102.5 72 174.5t174 72q100 0 171 -73t71 -175q0 -98 -72 -170t-170 -72q-102 0 -174 70.5t-72 173zM174 1142.5q0 -69.5 49 -117.5t119 -48q66 0 115 49t49 117q0 70 -48 119t-116 49q-72 0 -120 -49.5t-48 -119z" />
<glyph unicode="&#xb1;" horiz-adv-x="1157" d="M92 0v74h975v-74h-975zM92 575v74h449v426h77v-426h449v-74h-449v-421h-77v421h-449z" />
<glyph unicode="&#xb2;" horiz-adv-x="686" d="M53 535v45q248 236 330 345t82 208q0 63 -45 105t-117 42q-152 0 -176 -160q0 -20 -21 -20q-25 0 -24 47q0 100 66.5 160.5t175 60.5t176 -60.5t67.5 -156.5q0 -109 -90 -227.5t-313 -305.5q45 2 59 3h131q72 0 94.5 12t55.5 63l22 37q18 27 39 27q29 0 29 -23 q0 -8 -62 -123q-12 -23 -34 -88q-47 14 -209 15q-168 0 -236 -6z" />
<glyph unicode="&#xb3;" horiz-adv-x="686" d="M57 709q0 63 56 63q33 0 43 -17.5t14 -82.5q2 -41 39 -66.5t96 -25.5q88 0 146.5 52t58.5 132q0 76 -59.5 120t-159.5 44q-70 0 -160 -25l35 111q72 -16 133 -17q88 0 141.5 41t53.5 109q0 57 -49.5 95t-125 38t-121.5 -35t-53 -94q-6 -39 -22 -39q-29 0 -29 59 q0 84 65.5 140.5t164.5 56.5q102 0 169.5 -56.5t67.5 -142.5q0 -57 -31.5 -108t-83.5 -78q68 -16 110 -70.5t42 -124.5q0 -111 -86 -185.5t-213 -74.5q-106 0 -174 51.5t-68 129.5z" />
<glyph unicode="&#xb4;" d="M438 1010l291 286q35 35 66 35q27 0 45 -18.5t18 -42.5q0 -39 -47 -66l-309 -194h-64z" />
<glyph unicode="&#xb5;" horiz-adv-x="888" d="M-57 778q0 25 26 35l189 78q23 8 24 8q10 0 20.5 -14.5t10.5 -30.5q0 -8 -18 -31q-10 -16 -11 -65v-389q0 -111 10.5 -153t43.5 -75q51 -51 135 -51q57 0 129.5 34t120.5 83q14 14 14 53v447q0 31 -3 36t-24 7l-63 8q-16 0 -17 30q0 23 9 29q2 2 57 12q92 20 172 62 q12 4 14 4q6 0 18.5 -16.5t12.5 -26.5q0 -6 -29 -33q-31 -29 -30 -84v-538q0 -72 24 -72q6 0 19 4q45 23 51 23q8 0 18.5 -14.5t10.5 -26.5q0 -10 -21 -23l-186 -113q-8 -8 -21 -8q-6 0 -19.5 16.5t-13.5 24.5q0 4 9 21q14 27 14 112q-168 -160 -303 -159q-78 0 -141.5 37.5 t-96.5 103.5q-2 -94 2 -154q0 -18 6 -67l9 -92q6 -49 6 -89q0 -49 -16.5 -77.5t-45 -28.5t-46 26.5t-17.5 67.5q0 20 12 115q57 334 58 739q0 121 -2.5 146.5t-10.5 31.5q-4 2 -76 7q-23 2 -28.5 7t-5.5 23z" />
<glyph unicode="&#xb6;" horiz-adv-x="1075" d="M82 993q0 190 127 283q119 86 285 86q4 0 14 -1t29.5 -2t35.5 -1q74 -4 103 -4q57 0 131 37l18 8q20 10 24.5 10t12.5 -12.5t8 -18.5q0 -2 -4 -10q-14 -16 -14 -72v-1546q0 -29 6 -38t27 -9q2 0 35 4q6 2 12 2q14 0 14 -31q0 -12 -20 -20l-164 -64q-4 -2 -10 -2 q-18 0 -19 19v1583q0 59 -6 73.5t-31 14.5q-4 0 -47 -8l-49 -8v-1698q0 -39 -29 -49l-82 -33q-2 0 -8 -2t-10 -3t-6 -1q-4 0 -10 16l-2 10q-2 4 -2 8.5t18 20.5q10 10 10 31l2 18v19v1038q-150 0 -219 31q-84 39 -132 124.5t-48 196.5z" />
<glyph unicode="&#xb7;" horiz-adv-x="497" d="M150 455q0 41 29.5 69.5t70.5 28.5t69.5 -29.5t28.5 -70.5q0 -39 -28.5 -69t-69.5 -30t-70.5 30t-29.5 71z" />
<glyph unicode="&#xb8;" d="M348 -322l21 54q68 -23 108 -23q39 0 65.5 19.5t26.5 48.5q0 27 -20.5 44t-48.5 17q-10 0 -47 -6l-29 27l78 141h65l-59 -104q23 2 45 2q57 0 91 -30t34 -79q0 -61 -54.5 -101t-136.5 -40q-78 -1 -139 30z" />
<glyph unicode="&#xb9;" horiz-adv-x="686" d="M150 1159q0 14 18 27l231 184l31 -16q-10 -68 -10 -150v-377q0 -37 2 -63v-64q0 -68 15.5 -86t76.5 -26q29 -2 35 -6t6 -21q0 -31 -27 -31q-23 0 -94 15q-39 8 -65 8q-23 0 -99 -14q-41 -8 -61 -9q-27 0 -27 31q0 20 43 27q88 12 97 57q4 29 4 160v289q0 92 -2 145 l-115 -94q-20 -14 -29 -15q-10 0 -20 9.5t-10 19.5z" />
<glyph unicode="&#xba;" horiz-adv-x="657" d="M53 1094q0 127 77 204.5t202 77.5q119 0 193.5 -78.5t74.5 -205.5q0 -125 -77 -204t-197 -79q-119 0 -196 80t-77 205zM152 1093.5q0 -100.5 46 -157.5t130 -57q80 0 127 57t47 154q0 100 -46 157.5t-126 57.5q-84 0 -131 -55.5t-47 -156z" />
<glyph unicode="&#xbb;" horiz-adv-x="813" d="M117 150l207 288l-203 299h96l207 -299l-207 -288h-100zM391 150l205 288l-205 299h96l207 -299l-207 -288h-96z" />
<glyph unicode="&#xbc;" horiz-adv-x="1589" d="M147 1159q0 12 19 27l231 184l31 -16q-10 -78 -10 -150v-379q0 -35 2 -61v-66q0 -66 15.5 -84t76.5 -26q29 -2 35 -6t6 -21q0 -31 -27 -31q-25 0 -94 15q-45 8 -67 8q-18 0 -97 -14q-47 -8 -61 -9q-27 0 -27 31q0 25 43 27q94 12 96 59q2 10 5 158v289q0 86 -2 145 l-115 -94q-18 -16 -28.5 -16.5t-21 10t-10.5 20.5zM397 -16l713 1398h80l-713 -1398h-80zM956 256q0 8 19 33q12 12 86 112l293 394q27 35 37 34h4l26 -10q10 -4 10.5 -16t-1.5 -21q-4 -41 -5 -141v-348h107v-74h-107v-119q0 -57 -28 -106h-105q27 37 33 58.5t6 78.5v88 h-227q-35 0 -115 -4h-6q-27 0 -27 41zM1059 293h12h45h45h170l6 371z" />
<glyph unicode="&#xbd;" horiz-adv-x="1589" d="M147 1159q0 12 19 27l231 184l31 -16q-10 -78 -10 -150v-379q0 -35 2 -61v-66q0 -66 15.5 -84t76.5 -26q29 -2 35 -6t6 -21q0 -31 -27 -31q-25 0 -94 15q-45 8 -67 8q-18 0 -97 -14q-47 -8 -61 -9q-27 0 -27 31q0 25 43 27q94 12 96 59q2 10 5 158v289q0 86 -2 145 l-115 -94q-18 -16 -28.5 -16.5t-21 10t-10.5 20.5zM397 -16l713 1398h80l-713 -1398h-80zM956 -4v45q113 104 187 182q123 125 174 209t51 160q0 63 -45 105t-117 42q-152 0 -176 -159q0 -20 -22.5 -20.5t-22.5 44.5q0 100 66.5 161.5t175 61.5t176 -60t67.5 -157 q0 -109 -89 -226.5t-314 -303.5q39 2 59 2h131q70 0 93.5 12t56.5 64l23 37q18 29 38 28q29 0 29 -24q0 -8 -16 -39q-37 -70 -45 -82q-14 -31 -31 -76l-4 -14q-47 14 -201 14q-172 0 -244 -6z" />
<glyph unicode="&#xbe;" horiz-adv-x="1591" d="M57 709q0 63 56 63q33 0 42 -17.5t13 -84.5q4 -41 41 -66.5t94 -25.5q90 0 147.5 52t57.5 134q0 76 -58.5 120t-158.5 44q-68 0 -160 -25l35 111q66 -16 135 -17q86 0 139.5 41t53.5 109q0 59 -49.5 96t-125 37t-121.5 -35t-53 -94q-6 -39 -22 -39q-29 0 -29 59 q0 84 65.5 140.5t164.5 56.5q102 0 169.5 -56.5t67.5 -142.5q0 -57 -31.5 -109t-83.5 -77q68 -18 110 -72.5t42 -124.5q0 -109 -87 -184.5t-214 -75.5q-104 0 -172 51.5t-68 131.5zM397 -16l715 1398h80l-713 -1398h-82zM958 256q0 8 19 33q12 12 86 112l293 394 q27 35 37 34h4l26 -10q10 -4 10.5 -16t-1.5 -21q-4 -41 -5 -141v-348h105v-74h-105v-119q0 -57 -28 -106h-105q27 37 33 58.5t6 78.5v88h-227q-35 0 -115 -4h-6q-27 0 -27 41zM1061 293h12h45h45h170l6 371z" />
<glyph unicode="&#xbf;" horiz-adv-x="886" d="M51 457q59 47 153.5 77.5t188.5 30.5q166 0 271.5 -90t105.5 -233q0 -162 -172 -273q-33 -20 -133 -73q-94 -53 -94 -125q0 -70 67 -101q20 -10 103 -10q39 0 39 -14q0 -10 -13 -19l-127 -123q-8 -8 -14 -8t-49 33q-133 100 -133 205q0 72 51 127q35 41 64.5 59.5 t172.5 87.5q172 86 173 236q0 106 -81 172.5t-210 66.5q-121 0 -221 -61l-72 -49zM340 793q0 39 28.5 68.5t69.5 29.5t71 -28.5t30 -69.5t-30 -71t-71 -30t-69.5 30t-28.5 71z" />
<glyph unicode="&#xc0;" horiz-adv-x="1318" d="M-27 14q0 35 9.5 41t64.5 13q51 8 90 63t92 191l328 788q72 174 86 221q20 53 37 53q14 0 19.5 -11t27.5 -77q10 -37 43 -116l360 -920q51 -127 78 -155.5t111 -45.5q20 -4 24.5 -9t4.5 -23q0 -25 -7.5 -31t-33.5 -6q-23 0 -80 14q-55 16 -103 16q-35 0 -88 -14 q-59 -16 -78 -16q-20 0 -25 6t-5 33q0 16 6 22t27 8q43 8 58 19.5t15 36.5q0 29 -26 96l-136 342h-438l-131 -320q-33 -80 -33 -110q0 -49 80 -62q16 -2 24.5 -5t11.5 -8t3 -15q0 -43 -22 -43q-35 0 -93 14q-61 16 -84 16q-45 0 -110 -18q-39 -12 -64 -12q-43 -1 -43 24z M289 1694q0 29 20.5 48t48.5 19q27 0 64 -24l336 -240h-78l-328 125q-63 23 -63 72zM469 639h371l-178 481z" />
<glyph unicode="&#xc1;" horiz-adv-x="1318" d="M-27 14q0 35 9.5 41t64.5 13q51 8 90 63t92 191l328 788q72 174 86 221q20 53 37 53q14 0 19.5 -11t27.5 -77q10 -37 43 -116l360 -920q51 -127 78 -155.5t111 -45.5q20 -4 24.5 -9t4.5 -23q0 -25 -7.5 -31t-33.5 -6q-23 0 -80 14q-55 16 -103 16q-35 0 -88 -14 q-59 -16 -78 -16q-20 0 -25 6t-5 33q0 16 6 22t27 8q43 8 58 19.5t15 36.5q0 29 -26 96l-136 342h-438l-131 -320q-33 -80 -33 -110q0 -49 80 -62q16 -2 24.5 -5t11.5 -8t3 -15q0 -43 -22 -43q-35 0 -93 14q-61 16 -84 16q-45 0 -110 -18q-39 -12 -64 -12q-43 -1 -43 24z M469 639h371l-178 481zM563 1497l336 240q37 25 64 24q29 0 49 -19.5t20 -47.5q0 -47 -63 -72l-328 -125h-78z" />
<glyph unicode="&#xc2;" horiz-adv-x="1318" d="M-27 14q0 35 9.5 41t64.5 13q51 8 90 63t92 191l328 788q72 174 86 221q20 53 37 53q14 0 19.5 -11t27.5 -77q10 -37 43 -116l360 -920q51 -127 78 -155.5t111 -45.5q20 -4 24.5 -9t4.5 -23q0 -25 -7.5 -31t-33.5 -6q-23 0 -80 14q-55 16 -103 16q-35 0 -88 -14 q-59 -16 -78 -16q-20 0 -25 6t-5 33q0 16 6 22t27 8q43 8 58 19.5t15 36.5q0 29 -26 96l-136 342h-438l-131 -320q-33 -80 -33 -110q0 -49 80 -62q16 -2 24.5 -5t11.5 -8t3 -15q0 -43 -22 -43q-35 0 -93 14q-61 16 -84 16q-45 0 -110 -18q-39 -12 -64 -12q-43 -1 -43 24z M322 1501l290 258h103l284 -258h-71l-266 144l-275 -144h-65zM469 639h371l-178 481z" />
<glyph unicode="&#xc3;" horiz-adv-x="1318" d="M-27 14q0 35 9.5 41t64.5 13q51 8 90 63t92 191l328 788q72 174 86 221q20 53 37 53q14 0 19.5 -11t27.5 -77q10 -37 43 -116l360 -920q51 -127 78 -155.5t111 -45.5q20 -4 24.5 -9t4.5 -23q0 -25 -7.5 -31t-33.5 -6q-23 0 -80 14q-55 16 -103 16q-35 0 -88 -14 q-59 -16 -78 -16q-20 0 -25 6t-5 33q0 16 6 22t27 8q43 8 58 19.5t15 36.5q0 29 -26 96l-136 342h-438l-131 -320q-33 -80 -33 -110q0 -49 80 -62q16 -2 24.5 -5t11.5 -8t3 -15q0 -43 -22 -43q-35 0 -93 14q-61 16 -84 16q-45 0 -110 -18q-39 -12 -64 -12q-43 -1 -43 24z M319 1520q16 92 71.5 144t135.5 52q61 0 174 -47q92 -41 136 -41q39 0 64.5 20.5t53.5 73.5h47q-51 -201 -206 -200q-49 0 -152 39q-125 49 -162 49q-39 0 -70.5 -25.5t-39.5 -64.5h-52zM469 639h371l-178 481z" />
<glyph unicode="&#xc4;" horiz-adv-x="1318" d="M-27 14q0 35 9.5 41t64.5 13q51 8 90 63t92 191l328 788q72 174 86 221q20 53 37 53q14 0 19.5 -11t27.5 -77q10 -37 43 -116l360 -920q51 -127 78 -155.5t111 -45.5q20 -4 24.5 -9t4.5 -23q0 -25 -7.5 -31t-33.5 -6q-23 0 -80 14q-55 16 -103 16q-35 0 -88 -14 q-59 -16 -78 -16q-20 0 -25 6t-5 33q0 16 6 22t27 8q43 8 58 19.5t15 36.5q0 29 -26 96l-136 342h-438l-131 -320q-33 -80 -33 -110q0 -49 80 -62q16 -2 24.5 -5t11.5 -8t3 -15q0 -43 -22 -43q-35 0 -93 14q-61 16 -84 16q-45 0 -110 -18q-39 -12 -64 -12q-43 -1 -43 24z M352 1628q0 39 27 65.5t65.5 26.5t65.5 -26.5t27 -65.5t-27 -65.5t-65.5 -26.5t-65.5 26.5t-27 65.5zM469 639h371l-178 481zM811 1628q0 39 26.5 65.5t65.5 26.5t65.5 -26.5t26.5 -65.5t-26.5 -65.5t-65.5 -26.5t-65.5 26.5t-26.5 65.5z" />
<glyph unicode="&#xc5;" horiz-adv-x="1318" d="M-27 14q0 35 9.5 41t64.5 13q51 8 90 63t92 191l328 788q72 174 86 221q20 53 37 53q14 0 19.5 -11t27.5 -77q10 -37 43 -116l360 -920q51 -127 78 -155.5t111 -45.5q20 -4 24.5 -9t4.5 -23q0 -25 -7.5 -31t-33.5 -6q-23 0 -80 14q-55 16 -103 16q-35 0 -88 -14 q-59 -16 -78 -16q-20 0 -25 6t-5 33q0 16 6 22t27 8q43 8 58 19.5t15 36.5q0 29 -26 96l-136 342h-438l-131 -320q-33 -80 -33 -110q0 -49 80 -62q16 -2 24.5 -5t11.5 -8t3 -15q0 -43 -22 -43q-35 0 -93 14q-61 16 -84 16q-45 0 -110 -18q-39 -12 -64 -12q-43 -1 -43 24z M469 639h371l-178 481zM487 1628q0 82 57.5 138.5t137.5 56.5t136 -57.5t56 -139.5q0 -78 -57 -134t-135 -56q-82 0 -138.5 56t-56.5 136zM549 1630q0 -55 39 -94t94 -39q53 0 92 39t39 92q0 55 -39 94t-92 39q-55 0 -94 -39t-39 -92z" />
<glyph unicode="&#xc6;" horiz-adv-x="1734" d="M-18 31q0 16 7 20t46 12q57 8 93 47.5t81 141.5l360 928q14 35 15 59q0 27 -23 39q-20 12 -125 20q-29 2 -28 41q0 33 24 33q18 0 80 -4q98 -8 254 -8l203 2q205 6 291 6q2 -18 4 -55q2 -14 5 -53t7 -66q2 -23 2 -29q0 -35 -39 -35q-35 0 -41 58q-8 61 -41 80 q-23 12 -143 12h-297l209 -553h243q82 0 109 18q16 12 25 86q4 39 40 39q16 0 25.5 -10t7.5 -24.5t-2 -36.5q-2 -20 -6 -72q-2 -18 -2 -35q0 -18 4 -55q10 -66 10 -80q0 -43 -32 -43q-20 0 -30.5 13.5t-17.5 50.5q-8 47 -43 57q-10 4 -71 4h-228l160 -428q23 -66 47.5 -89.5 t71.5 -31.5t166 -8q160 0 201 35q18 14 25 28.5t32 90.5q12 33 43 32q37 0 37 -32q0 -16 -23 -99q-27 -100 -32 -147h-23l-150 8q-143 10 -372 10q-109 0 -148 -8q-51 -12 -73.5 -12t-22.5 39q0 16 8 24t29 10q70 8 70 54q0 20 -23 86l-84 225h-514l-84 -229 q-20 -57 -20 -76q0 -45 79 -60q25 -4 31 -11t6 -32q0 -18 -7 -24t-30 -6q-10 0 -79 18q-45 12 -86 12q-35 0 -125 -24q-23 -6 -43 -6q-27 0 -35 8t-8 35zM418 514h448l-221 614z" />
<glyph unicode="&#xc7;" horiz-adv-x="1372" d="M98 721q0 168 70 301q96 188 254 272t412 84q100 0 323 -37q8 0 38 -4l60 -8l11 -201q-2 -31 -8.5 -39t-26.5 -8q-25 0 -32 10.5t-17 59.5q-14 63 -39 84q-29 27 -133.5 48.5t-204.5 21.5q-229 0 -383 -138q-176 -158 -176 -479q0 -283 166 -450.5t446 -167.5 q109 0 197 25.5t121 66.5q18 20 47 112q12 37 43 37q16 0 28.5 -9t12.5 -19q0 -4 -9 -54l-43 -190q-291 -51 -440 -51l-53 -99q25 4 51 5q61 0 99 -34t38 -87q0 -68 -60.5 -112t-152.5 -44q-80 0 -153 33l24 59q74 -25 119 -24.5t73.5 22t28.5 53.5q0 29 -22.5 47.5 t-54.5 18.5q-20 0 -52 -4l-32 28l77 142q-315 31 -481 217t-166 512z" />
<glyph unicode="&#xc8;" horiz-adv-x="1064" d="M61 23q0 20 8.5 27t30.5 7q102 4 128 25.5t26 105.5v1018q0 57 -16 72q-12 10 -121 20q-27 4 -33 11.5t-6 33.5q0 29 22 29q14 0 60 -4q123 -8 239 -8q55 0 219 4q76 2 205 4h4q8 0 9.5 -5t1.5 -36l4 -49q12 -90 12 -113q0 -35 -39 -35q-20 0 -28.5 12.5t-12.5 49.5 q-8 57 -32.5 72.5t-112.5 15.5h-248v-553h307q68 0 86.5 15.5t26.5 82.5q6 43 37 43q37 0 36 -34q0 -12 -6 -56q-4 -37 -4 -84q0 -33 8 -82q6 -43 7 -59q0 -41 -37 -41q-33 0 -39 45q-8 57 -26.5 67.5t-98.5 10.5h-297v-297q4 -129 7 -158.5t24 -54.5q23 -29 78 -38t188 -9 q152 0 194 45q16 16 22.5 29.5t25.5 78.5q12 35 45 35q37 0 36 -30q0 -10 -4 -27q-23 -80 -53 -221h-18q-6 0 -25.5 1t-56.5 3t-68 4q-123 10 -373 10q-139 0 -266 -18l-39 -2q-23 0 -30 7t-7 30zM121 1694q0 29 20.5 48t48.5 19q23 0 64 -24l336 -240h-80l-328 125 q-61 21 -61 72z" />
<glyph unicode="&#xc9;" horiz-adv-x="1064" d="M61 23q0 20 8.5 27t30.5 7q102 4 128 25.5t26 105.5v1018q0 57 -16 72q-12 10 -121 20q-27 4 -33 11.5t-6 33.5q0 29 22 29q14 0 60 -4q123 -8 239 -8q55 0 219 4q76 2 205 4h4q8 0 9.5 -5t1.5 -36l4 -49q12 -90 12 -113q0 -35 -39 -35q-20 0 -28.5 12.5t-12.5 49.5 q-8 57 -32.5 72.5t-112.5 15.5h-248v-553h307q68 0 86.5 15.5t26.5 82.5q6 43 37 43q37 0 36 -34q0 -12 -6 -56q-4 -37 -4 -84q0 -33 8 -82q6 -43 7 -59q0 -41 -37 -41q-33 0 -39 45q-8 57 -26.5 67.5t-98.5 10.5h-297v-297q4 -129 7 -158.5t24 -54.5q23 -29 78 -38t188 -9 q152 0 194 45q16 16 22.5 29.5t25.5 78.5q12 35 45 35q37 0 36 -30q0 -10 -4 -27q-23 -80 -53 -221h-18q-6 0 -25.5 1t-56.5 3t-68 4q-123 10 -373 10q-139 0 -266 -18l-39 -2q-23 0 -30 7t-7 30zM434 1497l336 240q41 25 64 24q29 0 49 -19.5t20 -47.5q0 -49 -61 -72 l-328 -125h-80z" />
<glyph unicode="&#xca;" horiz-adv-x="1064" d="M61 23q0 20 8.5 27t30.5 7q102 4 128 25.5t26 105.5v1018q0 57 -16 72q-12 10 -121 20q-27 4 -33 11.5t-6 33.5q0 29 22 29q14 0 60 -4q123 -8 239 -8q55 0 219 4q76 2 205 4h4q8 0 9.5 -5t1.5 -36l4 -49q12 -90 12 -113q0 -35 -39 -35q-20 0 -28.5 12.5t-12.5 49.5 q-8 57 -32.5 72.5t-112.5 15.5h-248v-553h307q68 0 86.5 15.5t26.5 82.5q6 43 37 43q37 0 36 -34q0 -12 -6 -56q-4 -37 -4 -84q0 -33 8 -82q6 -43 7 -59q0 -41 -37 -41q-33 0 -39 45q-8 57 -26.5 67.5t-98.5 10.5h-297v-297q4 -129 7 -158.5t24 -54.5q23 -29 78 -38t188 -9 q152 0 194 45q16 16 22.5 29.5t25.5 78.5q12 35 45 35q37 0 36 -30q0 -10 -4 -27q-23 -80 -53 -221h-18q-6 0 -25.5 1t-56.5 3t-68 4q-123 10 -373 10q-139 0 -266 -18l-39 -2q-23 0 -30 7t-7 30zM193 1501l290 258h103l286 -258h-71l-266 144l-275 -144h-67z" />
<glyph unicode="&#xcb;" horiz-adv-x="1064" d="M61 23q0 20 8.5 27t30.5 7q102 4 128 25.5t26 105.5v1018q0 57 -16 72q-12 10 -121 20q-27 4 -33 11.5t-6 33.5q0 29 22 29q14 0 60 -4q123 -8 239 -8q55 0 219 4q76 2 205 4h4q8 0 9.5 -5t1.5 -36l4 -49q12 -90 12 -113q0 -35 -39 -35q-20 0 -28.5 12.5t-12.5 49.5 q-8 57 -32.5 72.5t-112.5 15.5h-248v-553h307q68 0 86.5 15.5t26.5 82.5q6 43 37 43q37 0 36 -34q0 -12 -6 -56q-4 -37 -4 -84q0 -33 8 -82q6 -43 7 -59q0 -41 -37 -41q-33 0 -39 45q-8 57 -26.5 67.5t-98.5 10.5h-297v-297q4 -129 7 -158.5t24 -54.5q23 -29 78 -38t188 -9 q152 0 194 45q16 16 22.5 29.5t25.5 78.5q12 35 45 35q37 0 36 -30q0 -10 -4 -27q-23 -80 -53 -221h-18q-6 0 -25.5 1t-56.5 3t-68 4q-123 10 -373 10q-139 0 -266 -18l-39 -2q-23 0 -30 7t-7 30zM211 1628q0 39 26.5 65.5t65.5 26.5t65.5 -26.5t26.5 -65.5t-26.5 -65.5 t-65.5 -26.5t-65.5 26.5t-26.5 65.5zM670 1628q0 39 26.5 65.5t65.5 26.5t65.5 -26.5t26.5 -65.5t-26.5 -65.5t-65.5 -26.5t-65.5 26.5t-26.5 65.5z" />
<glyph unicode="&#xcc;" horiz-adv-x="636" d="M16 1694q0 29 20.5 48t49.5 19q25 0 64 -24l333 -240h-77l-328 125q-62 21 -62 72zM74 33q0 12 6 17t26 7q109 23 129.5 59t18.5 195v740q0 123 -4 155.5t-21 53.5q-23 33 -125 49q-20 2 -25 10t-5 31q0 16 6 22t24 6q27 0 84 -14q90 -23 125 -23t138 25q66 12 92 12 q20 0 20 -37q0 -18 -9 -25t-42 -11q-96 -16 -115 -60q-14 -39 -14 -190v-752q0 -156 18 -186q20 -37 119 -56q33 -4 38 -10t5 -41q0 -23 -26 -22q-33 0 -95 16q-70 20 -121 20.5t-165 -28.5q-25 -8 -52 -8q-18 0 -24 9t-6 36z" />
<glyph unicode="&#xcd;" horiz-adv-x="636" d="M74 33q0 12 6 17t26 7q109 23 129.5 59t18.5 195v740q0 123 -4 155.5t-21 53.5q-23 33 -125 49q-20 2 -25 10t-5 31q0 16 6 22t24 6q27 0 84 -14q90 -23 125 -23t138 25q66 12 92 12q20 0 20 -37q0 -18 -9 -25t-42 -11q-96 -16 -115 -60q-14 -39 -14 -190v-752 q0 -156 18 -186q20 -37 119 -56q33 -4 38 -10t5 -41q0 -23 -26 -22q-33 0 -95 16q-70 20 -121 20.5t-165 -28.5q-25 -8 -52 -8q-18 0 -24 9t-6 36zM154 1497l333 240q35 25 64 24.5t49.5 -20t20.5 -47.5q0 -49 -62 -72l-328 -125h-77z" />
<glyph unicode="&#xce;" horiz-adv-x="636" d="M20 1501l250 258h103l243 -258h-69l-225 144l-234 -144h-68zM74 33q0 12 6 17t26 7q109 23 129.5 59t18.5 195v740q0 123 -4 155.5t-21 53.5q-23 33 -125 49q-20 2 -25 10t-5 31q0 16 6 22t24 6q27 0 84 -14q90 -23 125 -23t138 25q66 12 92 12q20 0 20 -37q0 -18 -9 -25 t-42 -11q-96 -16 -115 -60q-14 -39 -14 -190v-752q0 -156 18 -186q20 -37 119 -56q33 -4 38 -10t5 -41q0 -23 -26 -22q-33 0 -95 16q-70 20 -121 20.5t-165 -28.5q-25 -8 -52 -8q-18 0 -24 9t-6 36z" />
<glyph unicode="&#xcf;" horiz-adv-x="636" d="M39 1628q0 39 26.5 65.5t65.5 26.5t65.5 -26.5t26.5 -65.5t-26.5 -65.5t-65.5 -26.5t-65.5 26.5t-26.5 65.5zM76 33q0 12 6 17t27 7q109 23 129 59t18 195v740q0 123 -4 155.5t-21 53.5q-23 33 -125 49q-20 2 -25 10t-5 31q0 16 6 22t24 6q27 0 84 -14q90 -23 125 -23 t138 25q66 12 92 12q20 0 20 -37q0 -18 -9 -25t-42 -11q-96 -16 -115 -60q-14 -39 -14 -190v-752q0 -156 18 -186q20 -37 119 -56q33 -4 38 -10t5 -41q0 -23 -26 -22q-33 0 -95 16q-70 20 -121 20.5t-165 -28.5q-25 -8 -52 -8q-18 0 -24 9t-6 36zM416 1628q0 39 26.5 65.5 t65.5 26.5t65.5 -26.5t26.5 -65.5t-26.5 -65.5t-65.5 -26.5t-65.5 26.5t-26.5 65.5z" />
<glyph unicode="&#xd0;" horiz-adv-x="1511" d="M16 10v37q0 14 6.5 17.5t28.5 7.5l121 10q55 6 70 35q12 23 12 198v334h-193v82h193v424v86q-2 29 -13.5 38t-52.5 17l-69 11q-33 6 -39 11t-6 28q0 35 24 34l27 -2q117 -25 221 -24q72 0 303 14q16 2 53 2q317 0 513 -186.5t196 -489.5q0 -311 -194.5 -507.5 t-503.5 -196.5q-94 0 -275 28q-41 6 -86 7q-80 0 -200 -19q-102 -16 -119 -16t-17 20zM383 401q0 -139 4 -175t21 -66q57 -96 286 -97q248 0 385 136q184 174 185 489q0 276 -166 442t-445 166q-6 0 -80 -4l-151 -6q-31 -2 -35 -10q-4 -4 -4 -111v-434h465v-82h-465v-248z " />
<glyph unicode="&#xd1;" horiz-adv-x="1568" d="M78 31q0 16 7 21t40 14q86 16 100 47q16 29 19 249l4 834l2 25q0 63 -4 108q-2 10 -2 29q0 27 22 26q12 0 41 -34l918 -1102v792q0 147 -17 189q-8 33 -31.5 46t-101.5 32q-27 6 -32 12t-5 39q0 23 29 22q27 0 135 -28q25 -8 58 -9q35 0 122 25q39 12 80 12q18 0 24.5 -6 t6.5 -24q0 -23 -8 -31t-33 -12q-92 -14 -106 -45q-10 -14 -15 -74q0 -35 -2 -68l-2 -59v-832q0 -199 2 -221q2 -14 -4 -24.5t-16 -10.5q-16 0 -56 47l-907 1086v-744q0 -174 19 -229q23 -55 141 -74q20 -4 25.5 -9t5.5 -25q0 -23 -5.5 -29t-19.5 -6q-23 0 -106 20 q-45 12 -97 13q-41 0 -119 -19q-68 -14 -86 -14q-26 0 -26 41zM444 1520q16 92 71.5 144t135.5 52q61 0 174 -47q92 -41 136 -41q39 0 64.5 20.5t53.5 73.5h47q-51 -201 -206 -200q-49 0 -152 39q-125 49 -162 49q-39 0 -70.5 -25.5t-39.5 -64.5h-52z" />
<glyph unicode="&#xd2;" horiz-adv-x="1581" d="M102 682q0 303 199 501.5t500 198.5q295 0 487.5 -198.5t192.5 -501.5q0 -295 -201 -497.5t-493.5 -202.5t-488.5 200.5t-196 499.5zM231 676q0 -254 157 -417t400.5 -163t403.5 166t160 418q0 260 -156 424t-401 164q-250 0 -407 -164t-157 -428zM420 1694q0 29 20.5 48 t48.5 19q23 0 64 -24l336 -240h-80l-328 125q-61 21 -61 72z" />
<glyph unicode="&#xd3;" horiz-adv-x="1581" d="M102 682q0 303 199 501.5t500 198.5q295 0 487.5 -198.5t192.5 -501.5q0 -295 -201 -497.5t-493.5 -202.5t-488.5 200.5t-196 499.5zM231 676q0 -254 157 -417t400.5 -163t403.5 166t160 418q0 260 -156 424t-401 164q-250 0 -407 -164t-157 -428zM694 1497l334 240 q35 25 63.5 24.5t49 -20t20.5 -47.5q0 -49 -61 -72l-328 -125h-78z" />
<glyph unicode="&#xd4;" horiz-adv-x="1581" d="M102 682q0 303 199 501.5t500 198.5q295 0 487.5 -198.5t192.5 -501.5q0 -295 -201 -497.5t-493.5 -202.5t-488.5 200.5t-196 499.5zM231 676q0 -254 157 -417t400.5 -163t403.5 166t160 418q0 260 -156 424t-401 164q-250 0 -407 -164t-157 -428zM451 1501l292 258h101 l286 -258h-71l-266 144l-275 -144h-67z" />
<glyph unicode="&#xd5;" horiz-adv-x="1581" d="M102 682q0 303 199 501.5t500 198.5q295 0 487.5 -198.5t192.5 -501.5q0 -295 -201 -497.5t-493.5 -202.5t-488.5 200.5t-196 499.5zM231 676q0 -254 157 -417t400.5 -163t403.5 166t160 418q0 260 -156 424t-401 164q-250 0 -407 -164t-157 -428zM451 1520 q16 92 71.5 144t132.5 52q66 0 174 -47q96 -41 135.5 -41t66 20.5t54.5 73.5h48q-51 -201 -209 -200q-47 0 -150 39q-125 49 -164 49t-69.5 -25.5t-38.5 -64.5h-51z" />
<glyph unicode="&#xd6;" horiz-adv-x="1581" d="M102 682q0 303 199 501.5t500 198.5q295 0 487.5 -198.5t192.5 -501.5q0 -295 -201 -497.5t-493.5 -202.5t-488.5 200.5t-196 499.5zM231 676q0 -254 157 -417t400.5 -163t403.5 166t160 418q0 260 -156 424t-401 164q-250 0 -407 -164t-157 -428zM469 1628 q0 39 26.5 65.5t65.5 26.5t65.5 -26.5t26.5 -65.5t-26.5 -65.5t-65.5 -26.5t-65.5 26.5t-26.5 65.5zM928 1628q0 39 26.5 65.5t65.5 26.5t65.5 -26.5t26.5 -65.5t-26.5 -65.5t-65.5 -26.5t-65.5 26.5t-26.5 65.5z" />
<glyph unicode="&#xd7;" horiz-adv-x="1157" d="M131 190l393 396l-393 393l55 53l392 -393l395 393l53 -53l-395 -393l395 -396l-53 -53l-395 395l-392 -395z" />
<glyph unicode="&#xd8;" horiz-adv-x="1583" d="M102 16l177 187q-176 207 -177 475q0 305 199 505.5t502 200.5q231 0 440 -157l168 178l59 -53l-170 -183q182 -199 183 -479q0 -303 -201 -504.5t-500 -201.5q-264 0 -444 163l-176 -184zM231 676q0 -229 134 -387l794 850q-158 129 -362 129q-250 0 -408 -165 t-158 -427zM422 231q152 -135 369 -135q133 0 251.5 57.5t196.5 157.5q115 150 115 379q0 244 -135 393z" />
<glyph unicode="&#xd9;" horiz-adv-x="1433" d="M57 1343q0 39 25 39q12 0 141 -30q33 -4 49 -4q41 0 146 22q57 8 65 8q14 0 18.5 -7t4.5 -32q0 -18 -10.5 -23t-73.5 -22q-70 -16 -82 -42.5t-12 -170.5q0 -512 47 -696q82 -322 366 -322q299 0 361 373q31 164 31 611q0 152 -11 196q-8 45 -82 62q-39 8 -45 13t-6 33.5 t27 28.5q31 0 90 -18q51 -14 82 -14t110 20q25 8 70 8q18 0 18 -20q0 -31 -4 -37t-26 -10q-63 -14 -82 -37t-21 -92q0 -49 -18 -447q-16 -371 -123 -545q-129 -205 -391 -204q-137 0 -249 58t-165 159q-49 88 -69.5 201.5t-34.5 359.5l-17 352q-6 115 -8 123q-4 33 -21.5 45 t-82.5 31q-17 5 -17 30zM346 1694q0 29 20.5 48t49.5 19q27 0 63 -24l336 -240h-78l-329 125q-62 25 -62 72z" />
<glyph unicode="&#xda;" horiz-adv-x="1433" d="M57 1343q0 39 25 39q12 0 141 -30q33 -4 49 -4q41 0 146 22q57 8 65 8q14 0 18.5 -7t4.5 -32q0 -18 -10.5 -23t-73.5 -22q-70 -16 -82 -42.5t-12 -170.5q0 -512 47 -696q82 -322 366 -322q299 0 361 373q31 164 31 611q0 152 -11 196q-8 45 -82 62q-39 8 -45 13t-6 33.5 t27 28.5q31 0 90 -18q51 -14 82 -14t110 20q25 8 70 8q18 0 18 -20q0 -31 -4 -37t-26 -10q-63 -14 -82 -37t-21 -92q0 -49 -18 -447q-16 -371 -123 -545q-129 -205 -391 -204q-137 0 -249 58t-165 159q-49 88 -69.5 201.5t-34.5 359.5l-17 352q-6 115 -8 123q-4 33 -21.5 45 t-82.5 31q-17 5 -17 30zM621 1497l335 240q33 25 62 24.5t49 -20t20 -47.5q0 -49 -61 -72l-328 -125h-77z" />
<glyph unicode="&#xdb;" horiz-adv-x="1433" d="M57 1343q0 39 25 39q12 0 141 -30q33 -4 49 -4q41 0 146 22q57 8 65 8q14 0 18.5 -7t4.5 -32q0 -18 -10.5 -23t-73.5 -22q-70 -16 -82 -42.5t-12 -170.5q0 -512 47 -696q82 -322 366 -322q299 0 361 373q31 164 31 611q0 152 -11 196q-8 45 -82 62q-39 8 -45 13t-6 33.5 t27 28.5q31 0 90 -18q51 -14 82 -14t110 20q25 8 70 8q18 0 18 -20q0 -31 -4 -37t-26 -10q-63 -14 -82 -37t-21 -92q0 -49 -18 -447q-16 -371 -123 -545q-129 -205 -391 -204q-137 0 -249 58t-165 159q-49 88 -69.5 201.5t-34.5 359.5l-17 352q-6 115 -8 123q-4 33 -21.5 45 t-82.5 31q-17 5 -17 30zM406 1501l290 258h103l284 -258h-69l-266 144l-275 -144h-67z" />
<glyph unicode="&#xdc;" horiz-adv-x="1433" d="M57 1343q0 39 25 39q12 0 141 -30q33 -4 49 -4q41 0 146 22q57 8 65 8q14 0 18.5 -7t4.5 -32q0 -18 -10.5 -23t-73.5 -22q-70 -16 -82 -42.5t-12 -170.5q0 -512 47 -696q82 -322 366 -322q299 0 361 373q31 164 31 611q0 152 -11 196q-8 45 -82 62q-39 8 -45 13t-6 33.5 t27 28.5q31 0 90 -18q51 -14 82 -14t110 20q25 8 70 8q18 0 18 -20q0 -31 -4 -37t-26 -10q-63 -14 -82 -37t-21 -92q0 -49 -18 -447q-16 -371 -123 -545q-129 -205 -391 -204q-137 0 -249 58t-165 159q-49 88 -69.5 201.5t-34.5 359.5l-17 352q-6 115 -8 123q-4 33 -21.5 45 t-82.5 31q-17 5 -17 30zM424 1628q0 39 26.5 65.5t65.5 26.5t65.5 -26.5t26.5 -65.5t-26.5 -65.5t-65.5 -26.5t-65.5 26.5t-26.5 65.5zM883 1628q0 39 26.5 65.5t65.5 26.5t65.5 -26.5t26.5 -65.5t-26.5 -65.5t-65.5 -26.5t-65.5 26.5t-26.5 65.5z" />
<glyph unicode="&#xdd;" horiz-adv-x="1218" d="M-39 1352q0 18 6 23t25 5q33 0 117 -24q14 -6 45 -6q29 0 106 18q41 10 70 10q18 0 24 -6t6 -26.5t-7 -27.5t-29 -11q-80 -12 -80 -37q0 -16 32 -68l357 -553l303 500q63 100 63 115q0 16 -16 23t-78 20q-25 4 -24 43q0 29 32 28q14 0 48 -8q74 -18 104.5 -18t105.5 20 q33 8 46 8q25 0 31.5 -8t6.5 -37q0 -18 -36 -26q-66 -16 -84 -31q-16 -16 -72 -104l-387 -627v-287q0 -121 21.5 -150.5t127.5 -50.5q23 -4 26 -10t3 -37q0 -25 -27 -24q-23 0 -71 12q-106 25 -146 25q-45 0 -149 -29q-33 -8 -68 -8q-14 0 -18 8t-4 37q0 16 51 28 q90 23 109.5 51.5t19.5 147.5v287l-414 637q-47 74 -66.5 90t-74.5 33q-25 6 -30 13t-5 32zM512 1497l334 240q39 25 63 24q29 0 49.5 -19.5t20.5 -47.5q0 -49 -61 -72l-328 -125h-78z" />
<glyph unicode="&#xde;" horiz-adv-x="1013" d="M74 1350q0 16 6 22t24 6q29 0 82 -14q90 -23 125 -23t138 25q66 12 92 12q20 0 20 -37q0 -18 -9 -25t-42 -11q-78 -12 -103.5 -45t-25.5 -123l2 -82v-21l39 2q25 0 39 2q102 4 133 4q168 0 263 -86t95 -235q0 -166 -109.5 -269.5t-285.5 -103.5q-49 0 -96 21.5t-47 44.5 q0 8 12 8h6q33 -4 53 -4q164 0 256.5 70.5t92.5 195.5q0 123 -86 200t-226 77q-115 0 -131 -17q-6 -6 -8 -86v-545q0 -150 28.5 -190.5t139.5 -54.5q63 -10 74.5 -15.5t11.5 -29.5q0 -23 -6 -30t-27 -7q-49 0 -184 28q-57 10 -88 11q-25 0 -94 -17q-66 -20 -107 -20 q-20 0 -25.5 7t-5.5 32q0 20 8.5 25t59.5 14q66 12 78 61q8 29 8 186v738q0 123 -4 155.5t-21 53.5q-23 33 -125 49q-20 2 -25 10t-5 31z" />
<glyph unicode="&#xdf;" horiz-adv-x="1144" d="M43 37q0 20 45 26q78 16 94.5 41t14.5 129v439q0 57 -3.5 67.5t-19.5 8.5q-35 0 -42 6t-7 32q0 12 14 23l37 27q20 14 21 53v139q0 193 88 307.5t237 114.5q115 0 186.5 -66.5t71.5 -173.5q0 -57 -41 -166q-51 -137 -51 -170q0 -49 35 -91t162 -140q113 -88 159 -162.5 t46 -169.5q0 -133 -95.5 -230t-224.5 -97q-82 0 -142.5 42t-60.5 97q0 25 17.5 43t40.5 18q37 0 80 -59q53 -72 106 -72q66 0 118 64.5t52 146.5q0 88 -63 176q-20 25 -164 152q-92 80 -128 133t-36 104q0 31 9 56.5t48 107.5q41 92 41 158q0 90 -52 147.5t-136 57.5 q-145 0 -181 -156q-10 -66 -10 -180l10 -787q-2 -98 20.5 -122.5t137.5 -47.5q27 -2 32 -9t5 -34q0 -29 -35 -28q-27 0 -98.5 16.5t-106.5 16.5q-45 0 -149 -25q-31 -6 -53 -6q-29 0 -29 43z" />
<glyph unicode="&#xe0;" horiz-adv-x="894" d="M61 207q0 70 39 128t105 91q82 41 262 80l139 26q4 33 4 35q0 41 -14 111q-25 113 -195 113q-74 0 -92 -9.5t-36.5 -56.5t-29 -59.5t-32.5 -12.5q-41 0 -41 35q0 16 8 49q12 33 12 43q6 16 15 49q10 41 20 45q33 12 172 13q217 0 287 -109q14 -23 18.5 -41t14.5 -100 q4 -35 4 -53v-199l-2 -55q6 -133 10 -156q14 -72 90 -98q33 -10 33 -19q0 -20 -33 -46.5t-57 -26.5q-70 0 -139 112q-4 8 -17 27q-49 -66 -127 -104.5t-160 -38.5q-117 0 -187.5 62.5t-70.5 164.5zM98 1273.5q0 22.5 18.5 40t41.5 17.5q33 0 86 -53l276 -268h-65l-277 174 q-47 29 -63.5 48t-16.5 41.5zM190 219q0 -66 44.5 -105.5t115.5 -39.5q115 0 201 76q55 53 55 145v102q0 47 -26 47q-37 0 -120 -18t-130 -35q-140 -57 -140 -172z" />
<glyph unicode="&#xe1;" horiz-adv-x="894" d="M61 207q0 70 39 128t105 91q82 41 262 80l139 26q4 33 4 35q0 41 -14 111q-25 113 -195 113q-74 0 -92 -9.5t-36.5 -56.5t-29 -59.5t-32.5 -12.5q-41 0 -41 35q0 16 8 49q12 33 12 43q6 16 15 49q10 41 20 45q33 12 172 13q217 0 287 -109q14 -23 18.5 -41t14.5 -100 q4 -35 4 -53v-199l-2 -55q6 -133 10 -156q14 -72 90 -98q33 -10 33 -19q0 -20 -33 -46.5t-57 -26.5q-70 0 -139 112q-4 8 -17 27q-49 -66 -127 -104.5t-160 -38.5q-117 0 -187.5 62.5t-70.5 164.5zM190 219q0 -66 44.5 -105.5t115.5 -39.5q115 0 201 76q55 53 55 145v102 q0 47 -26 47q-37 0 -120 -18t-130 -35q-140 -57 -140 -172zM373 1010l291 286q35 35 67 35q25 0 43.5 -18.5t18.5 -42.5q0 -39 -48 -66l-309 -194h-63z" />
<glyph unicode="&#xe2;" horiz-adv-x="894" d="M61 207q0 70 39 128t105 91q82 41 262 80l139 26q4 33 4 35q0 41 -14 111q-25 113 -195 113q-74 0 -92 -9.5t-36.5 -56.5t-29 -59.5t-32.5 -12.5q-41 0 -41 35q0 16 8 49q12 33 12 43q6 16 15 49q10 41 20 45q33 12 172 13q217 0 287 -109q14 -23 18.5 -41t14.5 -100 q4 -35 4 -53v-199l-2 -55q6 -133 10 -156q14 -72 90 -98q33 -10 33 -19q0 -20 -33 -46.5t-57 -26.5q-70 0 -139 112q-4 8 -17 27q-49 -66 -127 -104.5t-160 -38.5q-117 0 -187.5 62.5t-70.5 164.5zM158 1010l239 321h103l237 -321h-63l-225 207l-234 -207h-57zM190 219 q0 -66 44.5 -105.5t115.5 -39.5q115 0 201 76q55 53 55 145v102q0 47 -26 47q-37 0 -120 -18t-130 -35q-140 -57 -140 -172z" />
<glyph unicode="&#xe3;" horiz-adv-x="894" d="M61 207q0 70 39 128t105 91q82 41 262 80l139 26q4 33 4 35q0 41 -14 111q-25 113 -195 113q-74 0 -92 -9.5t-36.5 -56.5t-29 -59.5t-32.5 -12.5q-41 0 -41 35q0 16 8 49q12 33 12 43q6 16 15 49q10 41 20 45q33 12 172 13q217 0 287 -109q14 -23 18.5 -41t14.5 -100 q4 -35 4 -53v-199l-2 -55q6 -133 10 -156q14 -72 90 -98q33 -10 33 -19q0 -20 -33 -46.5t-57 -26.5q-70 0 -139 112q-4 8 -17 27q-49 -66 -127 -104.5t-160 -38.5q-117 0 -187.5 62.5t-70.5 164.5zM104 1085q49 186 207 187q59 0 174 -45q96 -41 136 -41q41 0 66.5 20.5 t51.5 73.5h49q-57 -193 -208 -193q-53 0 -152 37q-119 47 -160 47q-39 0 -70.5 -24.5t-41.5 -61.5h-52zM190 219q0 -66 44.5 -105.5t115.5 -39.5q115 0 201 76q55 53 55 145v102q0 47 -26 47q-37 0 -120 -18t-130 -35q-140 -57 -140 -172z" />
<glyph unicode="&#xe4;" horiz-adv-x="894" d="M61 207q0 70 39 128t105 91q82 41 262 80l139 26q4 33 4 35q0 41 -14 111q-25 113 -195 113q-74 0 -92 -9.5t-36.5 -56.5t-29 -59.5t-32.5 -12.5q-41 0 -41 35q0 16 8 49q12 33 12 43q6 16 15 49q10 41 20 45q33 12 172 13q217 0 287 -109q14 -23 18.5 -41t14.5 -100 q4 -35 4 -53v-199l-2 -55q6 -133 10 -156q14 -72 90 -98q33 -10 33 -19q0 -20 -33 -46.5t-57 -26.5q-70 0 -139 112q-4 8 -17 27q-49 -66 -127 -104.5t-160 -38.5q-117 0 -187.5 62.5t-70.5 164.5zM166 1188q0 39 26.5 65.5t65.5 26.5t65.5 -26.5t26.5 -65.5t-26.5 -65.5 t-65.5 -26.5t-65.5 26.5t-26.5 65.5zM190 219q0 -66 44.5 -105.5t115.5 -39.5q115 0 201 76q55 53 55 145v102q0 47 -26 47q-37 0 -120 -18t-130 -35q-140 -57 -140 -172zM543 1188q0 39 26.5 65.5t65.5 26.5t65.5 -26.5t26.5 -65.5t-26.5 -65.5t-65.5 -26.5t-65.5 26.5 t-26.5 65.5z" />
<glyph unicode="&#xe5;" horiz-adv-x="894" d="M61 207q0 70 39 128t105 91q82 41 262 80l139 26q4 33 4 35q0 41 -14 111q-25 113 -195 113q-74 0 -92 -9.5t-36.5 -56.5t-29 -59.5t-32.5 -12.5q-41 0 -41 35q0 16 8 49q12 33 12 43q6 16 15 49q10 41 20 45q33 12 172 13q217 0 287 -109q14 -23 18.5 -41t14.5 -100 q4 -35 4 -53v-199l-2 -55q6 -133 10 -156q14 -72 90 -98q33 -10 33 -19q0 -20 -33 -46.5t-57 -26.5q-70 0 -139 112q-4 8 -17 27q-49 -66 -127 -104.5t-160 -38.5q-117 0 -187.5 62.5t-70.5 164.5zM190 219q0 -66 44.5 -105.5t115.5 -39.5q115 0 201 76q55 53 55 145v102 q0 47 -26 47q-37 0 -120 -18t-130 -35q-140 -57 -140 -172zM254 1174q0 82 57.5 138t137 56t136 -57.5t56.5 -139.5q0 -78 -57.5 -134t-134.5 -56q-82 0 -138.5 56.5t-56.5 136.5zM315 1176q0 -55 39 -94.5t95 -39.5q53 0 92 39t39 93q0 55 -39 94t-92 39q-55 0 -94.5 -39 t-39.5 -92z" />
<glyph unicode="&#xe6;" horiz-adv-x="1368" d="M63 201q0 113 88.5 183.5t276.5 104.5q29 6 176 35q0 164 -40 215.5t-165 51.5q-74 0 -100 -17q-8 -6 -37 -69q-12 -29 -22.5 -39.5t-26.5 -10.5q-43 0 -43 31q0 16 4 27l35 135q4 23 14 24q35 14 174 15q135 0 203 -34t98 -118q41 70 121 111t176 41q213 0 289 -195 q25 -66 25 -94q0 -27 -33 -33l-559 -102q2 -106 20 -172q25 -94 95.5 -148.5t166.5 -54.5q143 0 267 121q10 10 16 10l12 -6l17 -18q4 -4 4 -11q0 -10 -25 -34q-154 -168 -344 -168q-203 0 -299 172q-150 -174 -336 -174q-111 0 -179.5 61.5t-68.5 159.5zM190 219 q0 -66 44.5 -106.5t113.5 -40.5q61 0 122.5 27.5t92.5 70.5q41 55 41 174v47q-2 39 -5 46t-19 7q-33 0 -172 -32q-145 -39 -187 -99q-31 -39 -31 -94zM719 535q223 35 373 67q47 10 60 19.5t13 29.5q0 63 -53 112.5t-125 49.5q-106 0 -179 -75.5t-89 -202.5z" />
<glyph unicode="&#xe7;" horiz-adv-x="845" d="M88 416q0 209 124 342t320 133q102 0 171 -36t69 -89q0 -27 -20.5 -47.5t-44.5 -20.5q-27 0 -62 29q-63 49 -94 62.5t-78 13.5q-115 0 -189.5 -93.5t-74.5 -238.5q0 -164 87 -271.5t222 -107.5q59 0 107.5 20.5t134.5 84.5q12 4 14 4t10 -8l15 -19q4 -4 4 -12 q0 -10 -43 -53q-113 -106 -264 -121l-52 -94q23 4 45 4q57 0 91 -30t34 -79q0 -61 -54 -101t-136 -40q-78 0 -139 30l20 54q68 -23 109 -23q39 0 65.5 19.5t26.5 48.5q0 27 -20.5 44t-49.5 17q-10 0 -47 -6l-29 27l70 127q-154 14 -248 132t-94 298z" />
<glyph unicode="&#xe8;" horiz-adv-x="872" d="M88 389q0 221 114.5 360.5t297.5 139.5q176 0 264 -156q41 -76 41 -145q0 -25 -29 -29l-563 -100v-31q0 -156 76 -248t203 -92q150 0 274 125q14 12 18 12q6 0 20.5 -19.5t14.5 -27.5q0 -10 -24.5 -37.5t-57.5 -52.5q-131 -106 -280 -106q-172 0 -270.5 108.5 t-98.5 298.5zM115 1274q0 23 18.5 40t40.5 17q33 0 86 -53l277 -268h-66l-276 174q-80 47 -80 90zM221 530q25 4 141 25q205 35 267 53q33 12 33 39q0 35 -25 84q-41 84 -154 84q-102 0 -172 -75t-90 -210z" />
<glyph unicode="&#xe9;" horiz-adv-x="872" d="M88 389q0 221 114.5 360.5t297.5 139.5q176 0 264 -156q41 -76 41 -145q0 -25 -29 -29l-563 -100v-31q0 -156 76 -248t203 -92q150 0 274 125q14 12 18 12q6 0 20.5 -19.5t14.5 -27.5q0 -10 -24.5 -37.5t-57.5 -52.5q-131 -106 -280 -106q-172 0 -270.5 108.5 t-98.5 298.5zM221 530q25 4 141 25q205 35 267 53q33 12 33 39q0 35 -25 84q-41 84 -154 84q-102 0 -172 -75t-90 -210zM416 1010l291 286q35 35 67 35q25 0 43.5 -18.5t18.5 -42.5q0 -37 -45 -66l-312 -194h-63z" />
<glyph unicode="&#xea;" horiz-adv-x="872" d="M88 389q0 221 114.5 360.5t297.5 139.5q176 0 264 -156q41 -76 41 -145q0 -25 -29 -29l-563 -100v-31q0 -156 76 -248t203 -92q150 0 274 125q14 12 18 12q6 0 20.5 -19.5t14.5 -27.5q0 -10 -24.5 -37.5t-57.5 -52.5q-131 -106 -280 -106q-172 0 -270.5 108.5 t-98.5 298.5zM201 1010l241 321h101l237 -321h-63l-225 207l-234 -207h-57zM221 530q25 4 141 25q205 35 267 53q33 12 33 39q0 35 -25 84q-41 84 -154 84q-102 0 -172 -75t-90 -210z" />
<glyph unicode="&#xeb;" horiz-adv-x="872" d="M88 389q0 221 114.5 360.5t297.5 139.5q176 0 264 -156q41 -76 41 -145q0 -25 -29 -29l-563 -100v-31q0 -156 76 -248t203 -92q150 0 274 125q14 12 18 12q6 0 20.5 -19.5t14.5 -27.5q0 -10 -24.5 -37.5t-57.5 -52.5q-131 -106 -280 -106q-172 0 -270.5 108.5 t-98.5 298.5zM209 1188q0 39 26.5 65.5t65.5 26.5t65.5 -26.5t26.5 -65.5t-26.5 -65.5t-65.5 -26.5t-65.5 26.5t-26.5 65.5zM221 530q25 4 141 25q205 35 267 53q33 12 33 39q0 35 -25 84q-41 84 -154 84q-102 0 -172 -75t-90 -210zM586 1188q0 39 26.5 65.5t65.5 26.5 t65.5 -26.5t26.5 -65.5t-26.5 -65.5t-65.5 -26.5t-65.5 26.5t-26.5 65.5z" />
<glyph unicode="&#xec;" horiz-adv-x="514" d="M-23 1274q0 23 18.5 40t41.5 17q33 0 86 -53l276 -268h-65l-277 174q-80 47 -80 90zM49 10v27q0 23 33 24q82 16 100.5 42t20.5 124v361q0 109 -4 137q-4 20 -72 23q-51 0 -51 20v20q0 18 39 31q18 8 157 70q33 12 39 12t16.5 -15.5t10.5 -25.5q0 -6 -8 -20 q-12 -25 -13 -80v-533q0 -96 17.5 -118.5t105.5 -45.5q35 -8 35 -26v-27q0 -20 -29 -20q-18 0 -36 8q-92 29 -139.5 29t-137.5 -27q-41 -8 -57 -8q-27 0 -27 18z" />
<glyph unicode="&#xed;" horiz-adv-x="514" d="M49 10v27q0 23 35 24q82 16 100.5 42t20.5 124v361q0 109 -4 137q-4 20 -72 23q-51 0 -51 20v20q0 18 39 31q18 8 157 70q33 12 39 12t16.5 -15.5t10.5 -25.5q0 -6 -8 -20q-12 -25 -13 -80v-533q0 -96 17.5 -118.5t105.5 -45.5q35 -8 35 -26v-27q0 -20 -28 -20 q-18 0 -37 8q-92 29 -139.5 29t-137.5 -27q-41 -8 -57 -8q-29 0 -29 18zM117 1010l289 286q37 35 67 35q27 0 45.5 -18.5t18.5 -42.5q0 -35 -48 -66l-311 -194h-61z" />
<glyph unicode="&#xee;" horiz-adv-x="514" d="M-6 1010l215 321h100l209 -321h-63l-197 207l-205 -207h-59zM47 10v27q0 23 35 24q82 16 100.5 42t20.5 124v361q0 109 -4 137q-4 20 -72 23q-51 0 -51 20v20q0 18 39 31q18 8 157 70q33 12 39 12t16.5 -15.5t10.5 -25.5q0 -6 -8 -20q-12 -25 -13 -80v-533 q0 -96 17.5 -118.5t105.5 -45.5q35 -8 35 -26v-27q0 -20 -29 -20q-18 0 -36 8q-92 29 -139.5 29t-137.5 -27q-41 -8 -57 -8q-29 0 -29 18z" />
<glyph unicode="&#xef;" horiz-adv-x="514" d="M18 1188q0 39 27 65.5t66 26.5t65.5 -26.5t26.5 -65.5t-26.5 -65.5t-65.5 -26.5t-66 26.5t-27 65.5zM49 10v27q0 23 35 24q82 16 100.5 42t20.5 124v361q0 109 -4 137q-4 20 -72 23q-51 0 -51 20v20q0 18 39 31q18 8 157 70q33 12 39 12t16.5 -15.5t10.5 -25.5 q0 -6 -8 -20q-12 -25 -13 -80v-533q0 -96 17.5 -118.5t105.5 -45.5q35 -8 35 -26v-27q0 -20 -28 -20q-18 0 -37 8q-92 29 -139.5 29t-137.5 -27q-41 -8 -57 -8q-29 0 -29 18zM313 1188q0 39 27 65.5t65.5 26.5t65.5 -26.5t27 -65.5t-27 -65.5t-65.5 -26.5t-65.5 26.5 t-27 65.5z" />
<glyph unicode="&#xf0;" horiz-adv-x="1050" d="M86 438.5q0 200.5 123 326.5t317 126q133 0 242 -68q-76 225 -252 408l-194 -144l-41 56l180 133q-133 98 -236 137q-10 2 -10 8q0 27 16 27q18 0 99 -29q104 -37 192 -98l199 147l41 -55l-182 -133q381 -311 381 -823q0 -217 -119 -346t-320 -129q-193 0 -314.5 128 t-121.5 328.5zM215 440q0 -176 84 -276.5t229 -100.5q139 0 222.5 99.5t83.5 267.5q0 174 -83 276.5t-225 102.5q-145 0 -228 -98.5t-83 -270.5z" />
<glyph unicode="&#xf1;" horiz-adv-x="1087" d="M53 29q0 27 31 32q59 10 82.5 23.5t28.5 40.5q6 18 8 133v307q0 160 -8 170q-2 6 -25 8l-64 5q-20 2 -26 8t-6 22q0 25 32 39l162 70q27 12 35 12q10 0 20.5 -13.5t10.5 -27.5q0 -4 -4 -16q-8 -10 -8 -17q-6 -14 -9 -102q12 6 101 80q102 82 211 82q88 0 153.5 -46 t100.5 -130q39 -96 39 -541q-2 -53 17 -71.5t91 -33.5q45 -8 45 -36q0 -39 -29 -39q-31 0 -120 26q-37 10 -74 11q-47 0 -129 -25q-45 -12 -60 -12q-29 0 -28 41q0 16 8 22t43 15q98 20 111 65q8 33 8 117q0 252 -19 354q-16 82 -70.5 128t-131.5 46q-111 0 -242 -112 q-14 -12 -17.5 -22.5t-3.5 -53.5v-350q0 -104 20.5 -130t121.5 -49q27 -6 26 -24q0 -29 -5 -37t-25.5 -8t-94.5 22q-45 12 -90 13q-33 0 -141 -29q-25 -8 -45 -8q-31 0 -31 41zM203 1085q20 88 74.5 137.5t130.5 49.5q63 0 174 -45q96 -41 137 -41q39 0 65.5 20.5t53.5 73.5 h47q-53 -193 -207 -193q-55 0 -152 37q-121 47 -161 47q-39 0 -71 -24.5t-40 -61.5h-51z" />
<glyph unicode="&#xf2;" horiz-adv-x="1050" d="M86 438q0 203 123 328t323 125q193 0 311 -126t118 -331q0 -199 -123 -325.5t-315.5 -126.5t-314.5 127.5t-122 328.5zM176 1273.5q0 22.5 18.5 40t41.5 17.5q33 0 86 -53l276 -268h-66l-276 174q-47 29 -63.5 48t-16.5 41.5zM215 440q0 -176 84 -276.5t229 -100.5 q139 0 222.5 99.5t83.5 267.5q0 174 -83 276.5t-225 102.5q-145 0 -228 -98.5t-83 -270.5z" />
<glyph unicode="&#xf3;" horiz-adv-x="1050" d="M86 438q0 203 123 328t323 125q193 0 311 -126t118 -331q0 -199 -123 -325.5t-315.5 -126.5t-314.5 127.5t-122 328.5zM215 440q0 -176 84 -276.5t229 -100.5q139 0 222.5 99.5t83.5 267.5q0 174 -83 276.5t-225 102.5q-145 0 -228 -98.5t-83 -270.5zM451 1010l290 286 q35 35 68 35q25 0 43 -18.5t18 -42.5q0 -39 -47 -66l-309 -194h-63z" />
<glyph unicode="&#xf4;" horiz-adv-x="1050" d="M86 438q0 203 123 328t323 125q193 0 311 -126t118 -331q0 -199 -123 -325.5t-315.5 -126.5t-314.5 127.5t-122 328.5zM215 440q0 -176 84 -276.5t229 -100.5q139 0 222.5 99.5t83.5 267.5q0 174 -83 276.5t-225 102.5q-145 0 -228 -98.5t-83 -270.5zM236 1010l239 321 h103l237 -321h-63l-226 207l-233 -207h-57z" />
<glyph unicode="&#xf5;" horiz-adv-x="1050" d="M86 438q0 203 123 328t323 125q193 0 311 -126t118 -331q0 -199 -123 -325.5t-315.5 -126.5t-314.5 127.5t-122 328.5zM182 1085q49 186 207 187q59 0 174 -45q96 -41 135 -41q41 0 67 20.5t52 73.5h49q-57 -193 -209 -193q-53 0 -151 37q-119 47 -160 47 q-39 0 -70.5 -24.5t-42.5 -61.5h-51zM215 440q0 -176 84 -276.5t229 -100.5q139 0 222.5 99.5t83.5 267.5q0 174 -83 276.5t-225 102.5q-145 0 -228 -98.5t-83 -270.5z" />
<glyph unicode="&#xf6;" horiz-adv-x="1050" d="M86 438q0 203 123 328t323 125q193 0 311 -126t118 -331q0 -199 -123 -325.5t-315.5 -126.5t-314.5 127.5t-122 328.5zM215 440q0 -176 84 -276.5t229 -100.5q139 0 222.5 99.5t83.5 267.5q0 174 -83 276.5t-225 102.5q-145 0 -228 -98.5t-83 -270.5zM244 1188 q0 39 26.5 65.5t65.5 26.5t65.5 -26.5t26.5 -65.5t-26.5 -65.5t-65.5 -26.5t-65.5 26.5t-26.5 65.5zM621 1188q0 39 26.5 65.5t65.5 26.5t65.5 -26.5t26.5 -65.5t-26.5 -65.5t-65.5 -26.5t-65.5 26.5t-26.5 65.5z" />
<glyph unicode="&#xf7;" horiz-adv-x="1157" d="M92 549v74h975v-74h-975zM481 291q0 41 30 69.5t71 28.5t69.5 -29.5t28.5 -70.5q0 -39 -28.5 -69t-69.5 -30t-71 30t-30 71zM481 879q0 41 30 69.5t71 28.5t69.5 -29.5t28.5 -70.5t-28.5 -70t-69.5 -29t-71 30t-30 71z" />
<glyph unicode="&#xf8;" horiz-adv-x="1052" d="M49 -16l141 151q-102 113 -102 303q0 201 123 327t317 126q182 0 283 -96l129 137l53 -49l-133 -140q102 -113 103 -305q0 -205 -122 -330.5t-321 -125.5q-168 0 -278 100l-142 -145zM213 440q0 -137 49 -229l483 518q-90 84 -219 84q-150 0 -231.5 -97.5t-81.5 -275.5z M305 147q72 -88 223 -88q150 0 232 100.5t82 280.5q0 131 -54 230z" />
<glyph unicode="&#xf9;" horiz-adv-x="1064" d="M49 778q0 25 27 35l190 78q16 8 25 8q10 0 20.5 -14.5t10.5 -30.5q0 -8 -19 -31q-10 -16 -10 -65v-389q0 -111 10 -153t43 -75q51 -51 133 -51q57 0 130 34t120 83q14 14 14 53v447q0 31 -3 36t-23 7l-62 8q-18 0 -18 30q0 23 8 29q2 2 57 12q86 18 172 62q12 4 15 4 q6 0 18.5 -16.5t12.5 -26.5q0 -6 -29 -33q-31 -29 -31 -84v-538q0 -72 25 -72q6 0 18 4q45 23 51 23q8 0 18.5 -14.5t10.5 -26.5q0 -10 -20 -23l-187 -113q-8 -8 -20 -8q-6 0 -19.5 16.5t-13.5 24.5q0 4 8 21q14 27 14 112q-166 -160 -301 -159q-70 0 -131 31.5t-94 84.5 q-47 72 -47 267v227l-2 129q-2 23 -20 22l-19 2l-47 3q-23 2 -29 7t-6 23zM184 1274q0 23 18.5 40t41.5 17q33 0 86 -53l276 -268h-65l-277 174q-80 47 -80 90z" />
<glyph unicode="&#xfa;" horiz-adv-x="1064" d="M49 778q0 25 27 35l190 78q16 8 25 8q10 0 20.5 -14.5t10.5 -30.5q0 -8 -19 -31q-10 -16 -10 -65v-389q0 -111 10 -153t43 -75q51 -51 133 -51q57 0 130 34t120 83q14 14 14 53v447q0 31 -3 36t-23 7l-62 8q-18 0 -18 30q0 23 8 29q2 2 57 12q86 18 172 62q12 4 15 4 q6 0 18.5 -16.5t12.5 -26.5q0 -6 -29 -33q-31 -29 -31 -84v-538q0 -72 25 -72q6 0 18 4q45 23 51 23q8 0 18.5 -14.5t10.5 -26.5q0 -10 -20 -23l-187 -113q-8 -8 -20 -8q-6 0 -19.5 16.5t-13.5 24.5q0 4 8 21q14 27 14 112q-166 -160 -301 -159q-70 0 -131 31.5t-94 84.5 q-47 72 -47 267v227l-2 129q-2 23 -20 22l-19 2l-47 3q-23 2 -29 7t-6 23zM459 1010l291 286q35 35 65 35q27 0 45.5 -18.5t18.5 -42.5q0 -35 -48 -66l-309 -194h-63z" />
<glyph unicode="&#xfb;" horiz-adv-x="1064" d="M49 778q0 25 27 35l190 78q16 8 25 8q10 0 20.5 -14.5t10.5 -30.5q0 -8 -19 -31q-10 -16 -10 -65v-389q0 -111 10 -153t43 -75q51 -51 133 -51q57 0 130 34t120 83q14 14 14 53v447q0 31 -3 36t-23 7l-62 8q-18 0 -18 30q0 23 8 29q2 2 57 12q86 18 172 62q12 4 15 4 q6 0 18.5 -16.5t12.5 -26.5q0 -6 -29 -33q-31 -29 -31 -84v-538q0 -72 25 -72q6 0 18 4q45 23 51 23q8 0 18.5 -14.5t10.5 -26.5q0 -10 -20 -23l-187 -113q-8 -8 -20 -8q-6 0 -19.5 16.5t-13.5 24.5q0 4 8 21q14 27 14 112q-166 -160 -301 -159q-70 0 -131 31.5t-94 84.5 q-47 72 -47 267v227l-2 129q-2 23 -20 22l-19 2l-47 3q-23 2 -29 7t-6 23zM242 1010l241 321h103l235 -321h-63l-223 207l-234 -207h-59z" />
<glyph unicode="&#xfc;" horiz-adv-x="1064" d="M49 778q0 25 27 35l190 78q16 8 25 8q10 0 20.5 -14.5t10.5 -30.5q0 -8 -19 -31q-10 -16 -10 -65v-389q0 -111 10 -153t43 -75q51 -51 133 -51q57 0 130 34t120 83q14 14 14 53v447q0 31 -3 36t-23 7l-62 8q-18 0 -18 30q0 23 8 29q2 2 57 12q86 18 172 62q12 4 15 4 q6 0 18.5 -16.5t12.5 -26.5q0 -6 -29 -33q-31 -29 -31 -84v-538q0 -72 25 -72q6 0 18 4q45 23 51 23q8 0 18.5 -14.5t10.5 -26.5q0 -10 -20 -23l-187 -113q-8 -8 -20 -8q-6 0 -19.5 16.5t-13.5 24.5q0 4 8 21q14 27 14 112q-166 -160 -301 -159q-70 0 -131 31.5t-94 84.5 q-47 72 -47 267v227l-2 129q-2 23 -20 22l-19 2l-47 3q-23 2 -29 7t-6 23zM252 1188q0 39 26.5 65.5t65.5 26.5t65.5 -26.5t26.5 -65.5t-26.5 -65.5t-65.5 -26.5t-65.5 26.5t-26.5 65.5zM629 1188q0 39 26.5 65.5t65.5 26.5t65.5 -26.5t26.5 -65.5t-26.5 -65.5t-65.5 -26.5 t-65.5 26.5t-26.5 65.5z" />
<glyph unicode="&#xfd;" horiz-adv-x="1040" d="M-14 844q0 45 37 45q4 0 47 -12q49 -16 100 -17q63 0 121 21q18 8 28.5 8t18.5 -12.5t8 -28.5q0 -14 -5 -19.5t-38 -19.5l-39 -14q-31 -14 -31 -35q0 -18 31 -88l264 -549l234 448q74 139 74 181q0 25 -52 49l-43 18q-20 10 -20 25q0 18 10 32.5t23 14.5q6 0 53 -14 q35 -14 82 -15q37 0 125 27q6 2 16 2q8 0 16.5 -14.5t8.5 -30.5q0 -8 -3 -12.5t-11.5 -9.5t-30.5 -17q-25 -12 -45 -55l-39 -74l-437 -799q-49 -92 -117.5 -188.5t-111.5 -132.5q-82 -70 -170 -70q-35 0 -46 7t-13 32l-8 63v11q2 14 12 18t43 4q109 -2 177.5 67.5 t207.5 319.5l-320 637q-47 90 -74.5 123t-68.5 51q-14 7 -14 23zM502 1010l291 286q33 35 67 35q25 0 43.5 -18.5t18.5 -42.5q0 -39 -48 -66l-309 -194h-63z" />
<glyph unicode="&#xfe;" horiz-adv-x="1064" d="M70 1327q0 14 5 20.5t27 16.5l177 78q12 6 24 6q8 0 17.5 -13.5t9.5 -23.5q0 -8 -11 -31q-8 -14 -8 -63v-651q70 106 162 164.5t191 58.5q145 0 230 -101.5t85 -275.5q0 -225 -126 -376.5t-314 -151.5q-133 0 -228 77v-374q0 -59 6.5 -69.5t40.5 -14.5l48 -9q14 -2 18 -8 t4 -28q0 -20 -35 -29l-196 -47q-16 -4 -25 -4q-10 0 -19.5 13t-9.5 28q0 12 17 24q25 18 31 37t6 78v1563q0 53 -6.5 63t-38.5 10h-52q-30 0 -30 33zM311 367q0 -129 27 -181q29 -61 83 -96t120 -35q129 0 221 122t92 294q0 137 -65.5 222t-174.5 85q-84 0 -165.5 -54 t-126.5 -140q-10 -14 -11 -84v-133z" />
<glyph unicode="&#xff;" horiz-adv-x="1040" d="M-14 844q0 45 37 45q4 0 47 -12q49 -16 100 -17q63 0 121 21q18 8 28.5 8t18.5 -12.5t8 -28.5q0 -14 -5 -19.5t-38 -19.5l-39 -14q-31 -14 -31 -35q0 -18 31 -88l264 -549l234 448q74 139 74 181q0 25 -52 49l-43 18q-20 10 -20 25q0 18 10 32.5t23 14.5q6 0 53 -14 q35 -14 82 -15q37 0 125 27q6 2 16 2q8 0 16.5 -14.5t8.5 -30.5q0 -8 -3 -12.5t-11.5 -9.5t-30.5 -17q-25 -12 -45 -55l-39 -74l-437 -799q-49 -92 -117.5 -188.5t-111.5 -132.5q-82 -70 -170 -70q-35 0 -46 7t-13 32l-8 63v11q2 14 12 18t43 4q109 -2 177.5 67.5 t207.5 319.5l-320 637q-47 90 -74.5 123t-68.5 51q-14 7 -14 23zM240 1188q0 39 26.5 65.5t65.5 26.5t65.5 -26.5t26.5 -65.5t-26.5 -65.5t-65.5 -26.5t-65.5 26.5t-26.5 65.5zM616 1188q0 39 27 65.5t66 26.5t65.5 -26.5t26.5 -65.5t-26.5 -65.5t-65.5 -26.5t-66 26.5 t-27 65.5z" />
<glyph unicode="&#x152;" horiz-adv-x="2162" d="M100 674q0 305 199 507.5t498 202.5q182 0 331.5 -82.5t229.5 -230.5l-4 156q0 41 -10.5 54t-45.5 19q-25 4 -31.5 12.5t-6.5 35t20 26.5q2 0 66 -6q74 -6 262 -6q29 0 102 2l229 2q6 -61 7 -86v-6q0 -25 6 -74q4 -25 4 -37q0 -35 -39 -35q-20 0 -27.5 12.5t-17.5 71.5 q-10 45 -37 56.5t-121 11.5h-237v-551h319q55 0 76.5 16.5t25.5 59.5q2 37 11.5 50t32.5 13q33 0 32 -34l-2 -33q-6 -37 -6 -94q0 -27 6 -74q6 -59 6 -80q0 -39 -34 -39q-20 0 -31 14q-6 8 -17 66q-8 25 -21 31t-58 10l-13 2h-49h-278v-344q0 -139 46 -176t216 -37 q186 0 229 35q14 12 20.5 26.5t32.5 91.5q12 33 43 33q37 0 37 -30q0 -10 -12 -64q-25 -84 -25 -86q0 -4 -6 -28.5t-10 -47.5l-4 -24q-332 20 -490 20q-106 0 -204 -10q-68 -6 -74 -6q-18 0 -24.5 7t-6.5 30q0 18 5 24t22 8q57 2 68.5 30t13.5 157l4 55 q-84 -150 -234.5 -234.5t-332.5 -84.5q-299 0 -495 195.5t-196 496.5zM227 674q0 -252 157 -415t400.5 -163t404.5 163t161 411q0 266 -153 431t-398 165q-256 0 -414 -163t-158 -429z" />
<glyph unicode="&#x153;" horiz-adv-x="1603" d="M88 436q0 205 122 330t320 125q262 0 371 -219q29 90 123 152.5t207 62.5q82 0 150.5 -35t101.5 -92q20 -35 39.5 -90.5t19.5 -80t-24 -30.5l-566 -100q-2 -12 -2 -27q0 -160 75 -252t204 -92q125 0 235 92q47 39 58 39l6 -2l20 -22l2 -15q0 -10 -57 -63 q-150 -137 -307 -137q-102 0 -182 49t-125 137q-39 -82 -136.5 -132t-212.5 -50q-199 0 -320.5 123.5t-121.5 328.5zM215 438q0 -174 82 -274.5t225.5 -100.5t227.5 100.5t84 270.5q0 172 -83 273.5t-227 101.5q-145 0 -227 -98.5t-82 -272.5zM958 530q186 31 355 66 q59 14 72.5 22.5t13.5 32.5q0 43 -35 92q-49 72 -143 72q-106 0 -183 -88q-55 -68 -80 -197z" />
<glyph unicode="&#x178;" horiz-adv-x="1218" d="M-39 1352q0 18 6 23t25 5q33 0 117 -24q14 -6 45 -6q29 0 106 18q41 10 70 10q18 0 24 -6t6 -26.5t-7 -27.5t-29 -11q-80 -12 -80 -37q0 -16 32 -68l357 -553l303 500q63 100 63 115q0 16 -16 23t-78 20q-25 4 -24 43q0 29 32 28q14 0 48 -8q74 -18 104.5 -18t105.5 20 q33 8 46 8q25 0 31.5 -8t6.5 -37q0 -18 -36 -26q-66 -16 -84 -31q-16 -16 -72 -104l-387 -627v-287q0 -121 21.5 -150.5t127.5 -50.5q23 -4 26 -10t3 -37q0 -25 -27 -24q-23 0 -71 12q-106 25 -146 25q-45 0 -149 -29q-33 -8 -68 -8q-14 0 -18 8t-4 37q0 16 51 28 q90 23 109.5 51.5t19.5 147.5v287l-414 637q-47 74 -66.5 90t-74.5 33q-25 6 -30 13t-5 32zM287 1628q0 39 26.5 65.5t65.5 26.5t65.5 -26.5t26.5 -65.5t-26.5 -65.5t-65.5 -26.5t-65.5 26.5t-26.5 65.5zM745 1628q0 39 27 65.5t66 26.5t65.5 -26.5t26.5 -65.5t-26.5 -65.5 t-65.5 -26.5t-66 26.5t-27 65.5z" />
<glyph unicode="&#x2c6;" d="M223 1010l242 321h102l236 -321h-64l-225 207l-231 -207h-60z" />
<glyph unicode="&#x2dc;" d="M170 1085q20 88 74.5 137.5t130.5 49.5q61 0 176 -45q92 -41 135 -41q39 0 65.5 20.5t53.5 73.5h47q-53 -193 -207 -193q-55 0 -151 37q-121 47 -162 47q-39 0 -71 -24.5t-40 -61.5h-51z" />
<glyph unicode="&#x2000;" horiz-adv-x="911" />
<glyph unicode="&#x2001;" horiz-adv-x="1822" />
<glyph unicode="&#x2002;" horiz-adv-x="911" />
<glyph unicode="&#x2003;" horiz-adv-x="1822" />
<glyph unicode="&#x2004;" horiz-adv-x="606" />
<glyph unicode="&#x2005;" horiz-adv-x="454" />
<glyph unicode="&#x2006;" horiz-adv-x="303" />
<glyph unicode="&#x2007;" horiz-adv-x="303" />
<glyph unicode="&#x2008;" horiz-adv-x="227" />
<glyph unicode="&#x2009;" horiz-adv-x="364" />
<glyph unicode="&#x200a;" horiz-adv-x="100" />
<glyph unicode="&#x2010;" horiz-adv-x="428" d="M0 395v97h428v-97h-428z" />
<glyph unicode="&#x2011;" horiz-adv-x="428" d="M0 395v97h428v-97h-428z" />
<glyph unicode="&#x2012;" horiz-adv-x="428" d="M0 395v97h428v-97h-428z" />
<glyph unicode="&#x2013;" horiz-adv-x="712" d="M0 395v97h713v-97h-713z" />
<glyph unicode="&#x2014;" horiz-adv-x="1284" d="M0 395v97h1284v-97h-1284z" />
<glyph unicode="&#x2018;" horiz-adv-x="546" d="M152 889q4 111 53 256t108 229q27 39 27 43q14 23 28.5 27t69.5 4q6 0 6 -6l-10 -15q-57 -57 -115.5 -167.5t-58.5 -157.5t49 -47q8 0 60 10q-23 -61 -31 -176q-61 4 -82 4q-14 0 -104 -4z" />
<glyph unicode="&#x2019;" horiz-adv-x="546" d="M102 893q0 6 52 68q49 59 90 143t41 123q0 55 -52 55q-27 0 -57 -10q25 61 33 176q41 -4 90 -4q47 0 96 4q-10 -133 -59 -274.5t-119 -239.5q-31 -43 -37 -45l-61 -2q-17 0 -17 6z" />
<glyph unicode="&#x201a;" horiz-adv-x="503" d="M63 -383q0 6 52 68q49 59 90 142t41 122q0 55 -49 55q-29 0 -60 -10q25 61 33 176q86 -4 90 -4q8 0 20.5 1t34 2t41.5 1q-10 -133 -58 -271.5t-120 -240.5q-29 -43 -37 -45l-61 -2q-17 0 -17 6z" />
<glyph unicode="&#x201c;" horiz-adv-x="835" d="M152 887q27 293 174 510q27 39 38 45t54 6q25 0 24 -8q0 -6 -10 -15q-49 -49 -104 -145q-70 -117 -70 -184q0 -41 49 -41q25 0 62 12q-33 -100 -29 -180q-27 6 -74 6q-61 0 -114 -6zM442 887q14 156 53.5 268.5t118.5 239.5q25 39 36.5 46t56.5 7q27 0 26 -6 q0 -4 -18 -25q-66 -76 -115 -170t-49 -145q0 -47 49 -47q25 0 57 10q-29 -115 -28 -178q-29 6 -76 6q-45 0 -111 -6z" />
<glyph unicode="&#x201d;" horiz-adv-x="835" d="M102 893q0 4 15 20q74 90 121 179.5t47 140.5q0 47 -47 47q-16 0 -60 -10q31 96 27 178q43 -4 90 -4q39 0 98 4q-25 -262 -155 -479q-31 -51 -43.5 -66.5t-22.5 -15.5q-70 0 -70 6zM393 895q0 2 6 12q66 74 120 175.5t54 150.5t-49 49q-25 0 -57 -12q29 125 29 178 q55 -2 102 -2t86 2q-23 -168 -59.5 -277.5t-112.5 -228.5q-29 -41 -41 -48t-61 -7q-17 0 -17 8z" />
<glyph unicode="&#x201e;" horiz-adv-x="837" d="M102 -383q0 2 11 18q172 217 172 324q0 45 -49 45q-29 0 -60 -10q18 53 31 178q31 -4 74 -4q23 0 116 4q-29 -186 -60.5 -278.5t-107.5 -215.5q-37 -57 -47 -65q-4 -2 -61 -2q-19 0 -19 6zM395 -379q0 2 11 17q170 207 169 325q0 43 -47 43q-23 0 -61 -12q33 90 33 166 v12q23 -4 75 -4q68 0 111 4q-20 -168 -62 -282.5t-128 -249.5q-20 -29 -43 -29h-21q-25 -2 -32 0t-5 10z" />
<glyph unicode="&#x2022;" horiz-adv-x="1366" d="M401 692q0 119 84 202t205 83q113 0 196 -84t83 -199q0 -119 -83 -201.5t-200 -82.5t-201 82.5t-84 199.5z" />
<glyph unicode="&#x2026;" horiz-adv-x="1507" d="M152 84q0 41 29.5 70.5t70.5 29.5t69.5 -29.5t28.5 -70.5q0 -39 -29.5 -68.5t-68.5 -29.5q-41 0 -70.5 28.5t-29.5 69.5zM653 84q0 41 30 70.5t71 29.5t69.5 -29.5t28.5 -70.5q0 -39 -28.5 -68.5t-69.5 -29.5t-71 28.5t-30 69.5zM1155 84q0 41 29.5 70.5t70.5 29.5 t70 -29.5t29 -70.5q0 -39 -30 -68.5t-69 -29.5q-41 0 -70.5 28.5t-29.5 69.5z" />
<glyph unicode="&#x202f;" horiz-adv-x="364" />
<glyph unicode="&#x2039;" horiz-adv-x="538" d="M117 438l207 301h98l-207 -301l207 -288h-98z" />
<glyph unicode="&#x203a;" horiz-adv-x="538" d="M117 150l205 288l-205 301h98l207 -301l-207 -288h-98z" />
<glyph unicode="&#x205f;" horiz-adv-x="454" />
<glyph unicode="&#x20ac;" horiz-adv-x="1017" d="M6 748l27 92h102q12 102 43 186q131 352 455 352q72 0 248 -35q31 -8 80 -14l10 -201v-8q4 -39 -27 -39q-20 0 -25.5 10.5t-15.5 59.5q-10 55 -21.5 74.5t-45.5 34.5q-96 45 -199 45q-88 0 -171 -63.5t-124 -162.5q-45 -111 -57 -239h528l-27 -92h-510v-48q0 -59 5 -98 h467l-27 -92h-430q14 -84 43 -166q45 -121 138 -197.5t196 -76.5q61 0 118.5 24.5t79.5 61.5q14 23 37 112q8 37 33 37q14 0 23.5 -9t9.5 -22q0 -4 -8 -51l-35 -190q-147 -45 -273 -45q-137 0 -252.5 72.5t-179.5 199.5q-49 90 -76 250h-137l27 92h100q-6 45 -6 129v10v7 h-123z" />
<glyph unicode="&#x2122;" horiz-adv-x="1777" d="M-39 1286v8l21 88q6 27 22 27q4 0 10 -4q31 -18 119 -19h469q82 0 117 23q12 6 14 6q18 0 19 -16q0 -8 -2 -15l-19 -79q-6 -29 -22 -29q-6 0 -19 10q-31 25 -119 25h-161v-584q0 -78 10 -95.5t63 -25.5q27 -4 34 -10t7 -23q0 -35 -28 -34q-25 0 -60 10q-53 12 -76 12 q-18 0 -75 -12q-47 -10 -60 -10q-29 0 -28 32q0 27 32 31q66 12 74 35q6 12 8 51v62v561h-161q-106 0 -146 -29q-16 -14 -27 -14q-16 0 -16 18zM688 573q0 16 5 22.5t26 10.5q43 10 49 31q2 6 6 45l10 86l50 565q2 45 7 55.5t21 10.5q10 0 16.5 -6.5t22.5 -36.5l330 -623 l303 625q12 27 18.5 34t18.5 7q20 0 26 -45l78 -588q14 -113 27 -133q12 -16 63 -27q25 -8 25 -35q0 -33 -29 -32q-20 0 -61 12q-37 10 -55 10q-33 0 -99 -18q-20 -4 -35 -4q-27 0 -26 39q0 20 37 28q41 8 53 17.5t12 30t-10 96.5l-49 415l-260 -538q-23 -43 -28 -50.5 t-17 -7.5q-10 0 -16.5 7.5t-26.5 50.5l-285 538l-27 -389q-6 -63 -6 -78q0 -51 15.5 -66.5t74.5 -27.5q23 -4 23 -33q0 -31 -35 -30q-23 0 -53 10q-33 10 -56 10q-29 0 -77 -14q-25 -6 -37 -6q-29 -1 -29 32z" />
<glyph unicode="&#xe000;" horiz-adv-x="895" d="M0 895h895v-895h-895v895z" />
<glyph unicode="&#xfb01;" horiz-adv-x="1034" d="M66 29q0 16 8 22t35 15q59 14 72.5 41.5t13.5 138.5v448l-2 33q0 12 -7.5 15t-38.5 6q-23 2 -28.5 6t-5.5 22.5t18 30.5l41 31q18 14 18 34q2 2 3 43l4 134q6 186 67 276q84 123 242 123q121 0 121 -78q0 -29 -18.5 -50.5t-45.5 -21.5q-20 0 -76 21q-45 23 -69 22 q-57 0 -83 -62t-26 -208v-168q0 -45 8 -53q4 -2 45 -4h187q29 0 37 -6t8 -29q0 -41 -11.5 -53.5t-50.5 -12.5h-223v-477q0 -127 31 -159q18 -18 40.5 -25.5t100.5 -17.5q35 -6 42 -12.5t7 -29t-9 -28.5t-38 -6q-49 0 -168 30l-41 3q-53 0 -114 -21q-41 -12 -60 -12 q-23 0 -28.5 7t-5.5 32zM586 26.5q0 22.5 6 26.5t45 13q70 16 82 49q10 29 10 137v381q0 82 -7 95t-48 15q-29 2 -34 5.5t-5 23.5q0 16 4 23.5t20 15.5l154 82q10 8 23 8q8 0 19 -14.5t11 -24.5q0 -8 -12 -26q-10 -18 -10 -115v-455l2 -82q0 -57 18.5 -76.5t81.5 -35.5 q41 -8 50.5 -16.5t9.5 -30.5q0 -33 -29 -33q-20 0 -86 18q-47 14 -94 15q-49 0 -103 -19q-49 -14 -82 -14q-16 0 -21 6t-5 28.5zM692 1188q0 39 26.5 65.5t65.5 26.5t66 -26.5t27 -65.5t-27 -65.5t-66 -26.5t-65.5 26.5t-26.5 65.5z" />
<glyph unicode="&#xfb02;" horiz-adv-x="1036" d="M68 31q0 16 8 22t39 15q61 18 73 53q8 20 9 125v442q0 41 -4.5 50.5t-22.5 9.5q-35 0 -44 5t-9 21q0 18 26 43l37 31q12 12 15 22l2 19v92q2 211 51 315q33 70 104.5 112t159.5 42q123 0 123 -72q0 -10 -2 -16l215 80q18 6 24 6q8 0 16.5 -15.5t8.5 -29.5q0 -6 -16 -23 q-16 -18 -21.5 -37.5t-5.5 -74.5v-1061q0 -80 20 -101q10 -10 48.5 -25t66.5 -20q14 -2 19.5 -9t5.5 -27q0 -31 -27 -31q-23 0 -96 20q-41 12 -80 13q-41 0 -143 -25q-33 -10 -52 -10q-14 0 -19 7t-5 30v6q-2 12 7 19t32 12q82 16 95 46.5t11 192.5v907q0 57 -4 68 q-4 12 -44 23.5t-73 11.5q-4 0 -12 -8.5t-29 -8.5q-33 0 -83 23q-47 23 -70 22q-109 0 -109 -217v-217q2 -53 9 -55q10 -6 45 -6h192q27 0 34 -7t7 -32q0 -37 -11 -49t-44 -12h-232v-484q0 -82 8.5 -114.5t32.5 -49.5q45 -31 150 -37q29 -2 28 -34q0 -23 -7 -30t-33 -7 q-45 0 -134 20q-47 12 -88 13q-53 0 -102 -17q-57 -14 -72 -14q-28 0 -28 37z" />
<glyph unicode="&#xfb03;" horiz-adv-x="1572" d="M66 27q0 20 8 26t41 15q49 10 64.5 35.5t15.5 93.5v473q2 35 2 43q0 20 -5.5 26t-21.5 6q-39 0 -46 5.5t-7 31.5q0 10 8 18.5t53 41.5q16 14 17 28q0 37 2 99q2 166 24.5 253t77.5 144q88 84 207 84q74 0 120 -25.5t46 -66.5q0 -27 -20.5 -48.5t-49.5 -21.5q-20 0 -72 29 q-51 33 -88 33q-57 0 -92 -52q-37 -53 -37 -217v-176q0 -47 5.5 -55t35.5 -6l232 2l22 2q18 2 24.5 -7.5t6.5 -35.5q0 -61 -41 -62l-80 2l-90 -2q-39 0 -86 2h-31v-477q-4 -123 27 -156.5t162 -48.5q45 -2 54 -8t9 -28.5t-11 -30.5t-44 -8q-49 0 -123 18q-86 20 -117 21 q-37 0 -92 -17q-61 -20 -78 -20q-32 0 -32 37zM604 29q0 16 8.5 22t34.5 15q59 14 72.5 41.5t13.5 138.5v448l-2 33q0 12 -7 15t-38 6q-23 2 -29 6t-6 22.5t19 30.5l41 31q18 14 18 34l2 15q0 10 1 31.5t2 59.5t1 71q6 186 68 276q84 123 241 123q121 0 121 -78 q0 -29 -18.5 -50.5t-44.5 -21.5q-20 0 -76 21q-45 23 -70 22q-57 0 -82.5 -62t-25.5 -208v-168q0 -45 8 -53q4 -2 45 -4h186q29 0 37.5 -6t8.5 -29q0 -41 -11.5 -53.5t-50.5 -12.5h-223v-477q0 -127 31 -159q18 -18 40.5 -25.5t100.5 -17.5q35 -6 42 -12.5t7 -29t-9 -28.5 t-38 -6q-49 0 -168 30l-41 3q-53 0 -115 -21q-41 -12 -59 -12q-23 0 -29 7t-6 32zM1126 26.5q0 22.5 6.5 26.5t45.5 13q70 16 82 49q10 29 10 137v381q0 82 -7.5 95t-48.5 15q-29 2 -33.5 5.5t-4.5 23.5q0 16 4 23.5t20 15.5l154 82q10 8 22 8q8 0 19.5 -14.5t11.5 -24.5 q0 -8 -12 -26q-10 -18 -11 -115v-455l2 -82q0 -57 18.5 -76.5t82.5 -35.5q41 -8 50 -16.5t9 -30.5q0 -33 -28 -33q-20 0 -86 18q-47 14 -95 15q-49 0 -102 -19q-49 -14 -82 -14q-16 0 -21.5 6t-5.5 28.5zM1231 1188q0 39 26.5 65.5t65.5 26.5t65.5 -26.5t26.5 -65.5 t-26.5 -65.5t-65.5 -26.5t-65.5 26.5t-26.5 65.5z" />
<glyph unicode="&#xfb04;" horiz-adv-x="1574" d="M66 27q0 20 8 26t41 15q49 10 64.5 35.5t15.5 93.5v473q2 35 2 43q0 20 -5.5 26t-21.5 6q-39 0 -46 5.5t-7 31.5q0 10 8 18.5t53 41.5q16 14 17 28q0 37 2 99q2 166 24.5 253t77.5 144q88 84 207 84q74 0 120 -25.5t46 -66.5q0 -27 -20.5 -48.5t-49.5 -21.5q-20 0 -72 29 q-51 33 -88 33q-57 0 -92 -52q-37 -53 -37 -217v-176q0 -47 5.5 -55t35.5 -6l232 2l22 2q18 2 24.5 -7.5t6.5 -35.5q0 -61 -41 -62l-80 2l-90 -2q-39 0 -86 2h-31v-477q-4 -123 27 -156.5t162 -48.5q45 -2 54 -8t9 -28.5t-11 -30.5t-44 -8q-49 0 -123 18q-86 20 -117 21 q-37 0 -92 -17q-61 -20 -78 -20q-32 0 -32 37zM606 31q0 16 8.5 22t38.5 15q61 18 74 53q8 20 8 125v442q0 41 -4 50.5t-22 9.5q-33 0 -43.5 5t-10.5 21q0 18 27 43l37 31q12 12 14 22l2 19v92q2 211 51 315q33 70 105 112t160 42q123 0 123 -72q0 -10 -3 -16l215 80 q18 6 25 6q8 0 16.5 -15.5t8.5 -29.5q0 -6 -17 -23q-16 -18 -21 -37.5t-5 -74.5v-1061q0 -80 20 -101q10 -10 48 -25t67 -20q16 -2 20 -9t4 -27q0 -31 -26 -31q-23 0 -96 20q-41 12 -80 13q-41 0 -144 -25q-33 -10 -51 -10q-14 0 -19.5 7t-5.5 30v6q-2 12 7.5 19t31.5 12 q82 16 95.5 46.5t11.5 192.5v907q0 57 -4 68q-4 12 -44 23.5t-73 11.5q-4 0 -12 -8.5t-29 -8.5q-33 0 -84 23q-47 23 -69 22q-109 0 -109 -217v-217q2 -53 8 -55q8 -6 45 -6h193q27 0 34 -7t7 -32q0 -37 -11.5 -49t-44.5 -12h-231v-484q0 -82 8 -114.5t33 -49.5 q45 -31 149 -37q29 -2 29 -34q0 -23 -7 -30t-34 -7q-47 0 -133 20q-45 12 -88 13q-53 0 -102 -17q-57 -14 -72 -14q-29 0 -29 37z" />
</font>
</defs>
</svg>
